<?xml version="1.0" encoding="UTF-8"?><svg id="Layer_1" xmlns="http://www.w3.org/2000/svg" viewBox="0 0 623.62 623.62"><defs><style>.cls-1{fill:#fff;}.cls-2{fill:#231f20;}</style></defs><rect class="cls-2" x="124.72" y="124.72" width="17.01" height="374.17"/><rect class="cls-2" x="157.19" y="124.72" width="17.01" height="374.17"/><rect class="cls-2" x="189.66" y="124.72" width="17.01" height="374.17"/><rect class="cls-2" x="222.13" y="124.72" width="17.01" height="374.17"/><rect class="cls-2" x="254.6" y="124.72" width="17.01" height="374.17"/><rect class="cls-2" x="287.07" y="124.72" width="17.01" height="374.17"/><rect class="cls-2" x="319.54" y="124.72" width="17.01" height="374.17"/><rect class="cls-2" x="352.01" y="124.72" width="17.01" height="374.17"/><rect class="cls-2" x="384.48" y="124.72" width="17.01" height="374.17"/><rect class="cls-2" x="416.95" y="124.72" width="17.01" height="374.17"/><rect class="cls-2" x="449.42" y="124.72" width="17.01" height="374.17"/><rect class="cls-2" x="481.89" y="124.72" width="17.01" height="374.17"/><g><path class="cls-1" d="M335.86,249.45v8.92s-22.52-.51-30.49-3.74-21.81-5.11-23.05-4.43-5.67,4.77-7.8,11.57c-.42,1.33,1.52,2.49,4.92,3.48,.33,.09,.67,.19,1.02,.28,10.19,2.65,30.98,3.97,43.37,3.87,.44,0,.86,0,1.28-.02,4.87-.08,8.19-.41,8.63-.98,.47-.62,1.09-1.47,1.76-2.4,2.08-2.9,4.62-6.58,4.62-6.58l-4.26-9.98Z"/><path class="cls-1" d="M280.11,265.45l2.67,.36,26.84,3.61-8.16,8.7s-19.14-13.93-21.36-12.67Z"/><path class="cls-1" d="M278.55,264.98s15.65,7.69,14.41,8.54,5.14-1.78,5.14-1.78c0,0-16.59-7.98-19.55-6.76Z"/><polygon class="cls-1" points="306.43 271.74 313.7 266.71 303.24 266.71 306.43 271.74"/><path class="cls-1" d="M294.87,273.48s-9.18-.12-17.16-1.74c-7.98-1.63-15.6-1.44-18.97,0s42.73,6.37,42.73,6.37l-6.6-4.63Z"/><path class="cls-1" d="M254.31,285.26l4.43-13.52,42.73,6.37s-11.88,8.51-16.84,7.83-30.32-.68-30.32-.68Z"/><polygon class="cls-1" points="285.95 268.78 287.46 274.35 289.94 274.35 288.32 265.36 285.95 268.78"/><path class="cls-1" d="M307.44,271.74s3.25,17.44,1.03,23.4c-7.53,20.26-42.11,40.51-40.16,43.23,1.95,2.72,6.74,0,7.45,1.19s35.81-25.53,35.81-25.53c0,0,2.84-9.7,2.13-10.55s-.46-31.81-6.26-31.74Z"/><polygon class="cls-1" points="301.47 278.11 309.62 286.62 307.29 267.39 301.47 278.11"/><path class="cls-1" d="M254.31,285.26s4.79,5.45,15.6,10.38c10.81,4.94,18.04,12.09,18.04,12.09l1.29,1.19v-2.21l7.9,5.1,8.41-10.76s-24.11-15.11-32.8-19.2c-8.69-4.09-18.44,3.4-18.44,3.4Z"/><path class="cls-1" d="M289.23,282.54s1.77,8.85,.71,12.77c-1.06,3.91-.71,13.62-.71,13.62,0,0-1.08,11.32-10.69,19.61-9.61,8.29-10.23,9.84-10.23,9.84l-5.14-14.47s26.97-24.19,26.06-41.36Z"/><polygon class="cls-1" points="280.9 319.31 288.32 282.54 289.89 286.62 280.9 319.31"/><path class="cls-1" d="M311.57,314.03l-1.06,14.98s-2.3,4.94-7.27,9.36c-4.96,4.43-10.46,6.13-10.46,6.13l-29.61,6.47s11.85-13.62,27.11-24.51c15.26-10.89,21.29-12.43,21.29-12.43Z"/><path class="cls-1" d="M261.04,352.16l-1.24,14.81s5.67-1.87,20.12-4.26c14.45-2.38,27.24-7.83,27.24-7.83l4.41-2.72v-15.66s-1.95-4.77-6.03-4c-4.08,.77,2.93,5.19,2.93,5.19l-2.93,6.64s-41.49,3.23-44.5,7.83Z"/><polygon class="cls-1" points="296.86 341.26 299.72 344.84 305.54 344.33 308.47 337.69 304.62 334.39 296.86 341.26"/><polygon class="cls-1" points="278.55 346.03 302.66 342.97 299.34 348.75 278.55 346.03"/><path class="cls-1" d="M299.02,357.88s27.09,7.89,25.68,10.44c-1.42,2.55-4.61,5.85-4.61,5.85h9.22l-3.9-15.55s-.12-6.4-13.83-10.72-12.56,9.98-12.56,9.98Z"/><path class="cls-1" d="M259.8,366.97l2.59,1.05,.78,.32s-.53,5.85,1.06,5.85h46.27l-23.14-12.97s-28.28,3.55-27.57,5.76Z"/><path class="cls-1" d="M331.25,269.07s2.13,1.22,8.87-5.25-7.09-1.19-7.09-1.19l-1.78,7.23"/></g><polygon class="cls-1" points="294.87 303.63 301.05 319.31 314.15 300.92 294.87 303.63"/><path class="cls-1" d="M336.55,266.89s-1.35,3.53-8.5,2.52c-7.15-1.01,8.5-2.52,8.5-2.52Z"/><path class="cls-1" d="M324.98,264.85l-6.64,3.39s11.81,2.32,15.01,.98-3.13-5.93-3.13-5.93l-5.23,1.55Z"/><polygon class="cls-2" points="336.55 244.15 336.55 257.74 335.86 258.37 331.36 254.36 336.55 244.15"/><path class="cls-2" d="M319.54,257.34s15.63,1.66,16.32,1.03-16.32-1.03-16.32-1.03Z"/><path class="cls-1" d="M328.05,269.41s7.29,1.31,12.07-2.02-12.07,2.02-12.07,2.02Z"/><polygon class="cls-1" points="298.1 264.85 291.02 278.11 298.1 271.74 298.1 264.85"/><path class="cls-2" d="M267.73,128.87l5.45,14.3s1.19,15.15-1.19,21.11-4.26-35.4-4.26-35.4Z"/><path class="cls-2" d="M233.34,177.38l6.47,28.6s12.26,17.19,29.11,23.15c16.85,5.96,15.32,16.85,15.32,16.85l1.36-22.64s-2.72-10.04-17.87-16.34c-15.15-6.3-22.98-14.3-22.98-14.3l-6.81-6.47-2.35-4.53-2.24-4.32Z"/><path class="cls-2" d="M232.49,173.63l7.66,12.94s13.34,12.25,31.69,22.38-7.35,11.66-7.35,11.66l-24.34-23.49-7.66-23.49Z"/><path class="cls-2" d="M267.73,228.68s16,9.13,16.51,17.3c.51,8.17-3.06-26.04-3.06-26.04l-13.45,8.75Z"/><path class="cls-2" d="M276.01,234.44l-19.17,7.11s-25.19,10.21-23.49,22.64,1.19,7.49,1.19,7.49l20.1-10.21,9.86-3.57,15.83-7.49s4.18-2.34,3.96-5.26-2.94-14.66-2.94-14.66l-5.34,3.96Z"/><path class="cls-2" d="M264.49,257.89s21.28,35.23,23.49,35.4c2.21,.17,10.06-13.79,10.06-13.79,0,0-1.89-10.38-17.72-29.11-15.83-18.72-15.83,7.49-15.83,7.49Z"/><path class="cls-2" d="M233.34,275.08s12.26,32.85,29.45,50.55c17.19,17.7,13.22,27.91,13.22,27.91l-3.85,27.4s-1.19-28.94-5.96-29.28c-4.77-.34-5.11,2.89-5.11,2.89,0,0-29.62-36.94-29.79-48.51-.17-11.57-4.77-16.34-4.77-16.34l6.81-14.64Z"/><path class="cls-2" d="M298.05,279.51l-5.98,27.74s-7.15,8.51-17.7,12.6-13.79,8.17-13.79,8.17l-14.42,6.5-15.03,7.97s-15.66,9.36-15.32,12.26-3.06,12.94-3.06,12.94l-1.19-25.19s-1.02-8.68,10.04-13.62c11.06-4.94,17.36-11.57,17.36-11.57,0,0,48.51-21.62,51.4-27.4,2.89-5.79,7.68-10.38,7.68-10.38Z"/><polygon class="cls-2" points="261.09 354.57 272.49 370.91 272.49 352.36 263.81 345.89 261.09 354.57"/><path class="cls-2" d="M216.03,353.92s11.01,10.35,31.44,19.71c20.43,9.36,17.02,36.26,17.02,36.26l-5.45-6.3s-18.55-13.28-24-13.45c-5.45-.17-19.01-13.79-19.01-13.79,0,0-2.94-1.48-3.62-15.81-.68-14.34,3.62-6.62,3.62-6.62Z"/><path class="cls-2" d="M268.28,364.87s-1.4,3.48-18.59,13.36c-17.19,9.87,11.4,16,11.4,16l10.99-14.68v-20.39l-3.8,5.71Z"/><path class="cls-2" d="M261.81,406.79s-.08,.15-.23,.43c-2.35,4.33-21.71,40.11-20.92,42.67,.85,2.72-7.32,21.96-7.32,21.96,0,0,8,23.54,12.94,26.75,4.94,3.21-3.4-7.34-3.4-7.34,0,0,.17-9.7,6.81-20.6s13.45-33.36,13.45-33.36l6.64-20.6-5.82-19.85-2.14,9.94Z"/><path class="cls-2" d="M233.34,389.77s-18.55,9.9-19.74,23.35c-1.19,13.45,19.74-23.35,19.74-23.35Z"/><path class="cls-2" d="M251.47,398.45s-30.38,17.56-31.4,23.86c-1.02,6.3-6.52-6.24-6.52-6.24l19.79-26.31h18.21l-.09,8.68Z"/><path class="cls-2" d="M213.55,416.08l2.77,21.56s4.43,8.51,11.06,12.26c6.64,3.74,12.43,9.87,12.43,9.87l3.57-8.85s-9.87-22.13-13.45-20.43c-3.57,1.7-16.39-14.41-16.39-14.41Z"/><path class="cls-2" d="M220.07,422.32s6.76,2.94,12.49,9.47c5.73,6.53-.91,8.57-.91,8.57l-11.57-18.04Z"/><path class="cls-2" d="M248.79,472.19s9.91,25.07,8.55,26.41c-1.36,1.34-15.32,0-15.32,0l6.77-26.41Z"/><path class="cls-2" d="M242.03,480.53s4.94,8.85,4.09,10.38c-.85,1.53,3.95-15.48,3.95-15.48l-4.02-12.78-4.02,17.87Z"/><polygon class="cls-2" points="243.26 487.74 248.15 493.29 244.43 493.29 238.11 484.37 243.26 487.74"/><path class="cls-2" d="M214.38,334.2s18.13-13.98,24.58-16.9c6.45-2.93,7.66,6.3,7.66,6.3l-32.24,10.61Z"/><path class="cls-2" d="M240.83,268.48s-12,9.45-10.76,13.64c1.23,4.19-1.83-2.61-1.83-2.61l5.11-17.19,7.49,6.16Z"/><polygon class="cls-2" points="269.77 416.7 271.13 425.04 257.47 453.72 269.77 416.7"/><path class="cls-2" d="M366.79,124.42s5.11,2.92,2.55,15.68c-.92,4.58-1.5,3.86-1.88,1.04-.67-5.03-.67-16.73-.67-16.73Z"/><path class="cls-2" d="M367.31,139.76s-23.84,57.87-25.03,61.79c-1.19,3.91,21.79-11.23,21.79-11.23l5.1-49.36-1.85-1.19Z"/><path class="cls-2" d="M399.81,155.76s-14.13,41.19-22.81,48.68c-8.68,7.49-31.32,15.49-31.32,15.49l39.66-41.36,14.47-24v1.19Z"/><path class="cls-2" d="M334.79,208.19s10.38-13.45,21.79-16,29.49-14.82,30.32-16.19-18.47,31.17-18.47,31.17l-27.85,15.83s-11.06,7.73-10.38,10.59,4.6-25.4,4.6-25.4Z"/><path class="cls-2" d="M357.74,215.15s-21.42,47.92-18.69,53.33c2.72,5.41-1.36,4.17-1.36,4.17,0,0-5.51-18.16-7.52-23.95s1.88-22.47,1.88-22.47l19.59-17.53,6.1,6.45Z"/><path class="cls-2" d="M349.45,234.61s25.51,21.07,31.98,41.32c6.47,20.26,6.98,26.38,6.98,26.38l-1.49,16-4.3-26.55-15.32-14.28s-19.51-19.58-25.07-23.93c-5.56-4.35-7.44-15.75-7.44-15.75l14.66-3.19Z"/><path class="cls-2" d="M338.87,266.06s8.01,10.89,30.82,20.77c22.81,9.87-16.85,10.04-16.85,10.04,0,0-13.28-7.28-15.49-25.34-2.21-18.06,1.52-5.47,1.52-5.47Z"/><path class="cls-2" d="M364.89,275.08s6.37,7.91,11.86,16.94c3.8,6.25,7.18,13.04,7.74,18.12,1.36,12.43,1.53-10.21,1.53-10.21l-6.64-23.47-14.49-1.38Z"/><path class="cls-2" d="M352.83,296.87l19.23,9.87s5.57-4.29,6.3-7.49,1.87-8.85,1.87-8.85l-27.4,6.47Z"/><path class="cls-2" d="M384.49,310.14s2.55,10.04-11.74,33.36c-14.3,23.32-39.66,34.21-39.66,34.21l3.55,20.26,36.28-27.06s12.09-16.17,13.11-33.02c1.02-16.85,3.57-21.17,3.57-21.17l-5.11-6.57Z"/><path class="cls-2" d="M378.89,296.87l3.39,19.06s-.56,9.36-17.39,20.26-15.63,24.34-15.63,24.34c0,0-5.45-26.89-4.43-30.47s22.98-20.77,22.98-20.77l8.34-6.13,2.74-6.3Z"/><path class="cls-2" d="M377.96,334.78s-19,30.41-36.7,37.9c-17.7,7.49-13.45,23.32-13.45,23.32l28.89-23.83,21.26-37.39Z"/><path class="cls-2" d="M349.26,360.53s0,5.11,6.64,8.68c6.64,3.57,10.64,6.46,10.64,6.46,0,0,23.06,13.79,27.83,19.75,4.77,5.96,2.21-12.94,2.21-12.94l-3.57-7.49s-7.15-6.81-19.74-15.83c-12.6-9.02-16.56-11.91-16.56-11.91l-2.5-9.36-4.94,8v14.64Z"/><path class="cls-2" d="M355.54,383.88s20.65,17.67,22.42,24.82c1.77,7.15-6.57,3.23-6.57,3.23,0,0-11.78-12.43-34.74-13.96-22.96-1.53,18.89-14.1,18.89-14.1Z"/><path class="cls-2" d="M363.49,416.08s24.4-7.38,30.87-20.66c6.47-13.28,3.91,17.58,3.91,17.58,0,0-6.14,7.6-13.45,13.56-3.77,3.08-7.86,5.72-11.57,6.64s-6.38,1.6-7.99,2l-2.9,.73-3.4-18.04,4.53-1.81Z"/><path class="cls-2" d="M384.83,426.56s2.9,29.96-1.36,42.56-12.43,29.47-12.43,29.47l32-.87-7.66-26.55-10.56-44.6Z"/><path class="cls-2" d="M365.27,435.21s10.55,.73,21.78,11.62c11.23,10.89,11.73,17.36,11.73,17.36v-36.6l-20.57,3.56-12.94,4.05Z"/><path class="cls-2" d="M383.98,422.32s1.53,6.3,2.21,9.87c.68,3.57,5.28,1.19,5.28,1.19l-1.87-19.36-5.62,8.3Z"/><polygon class="cls-2" points="382.02 425.21 387.05 429.62 384.53 436.78 374.45 429.97 382.02 425.21"/><polygon class="cls-2" points="396.07 445.89 398.45 481.79 388.75 455.51 396.07 445.89"/><polygon class="cls-2" points="390.62 441.89 388.75 459.76 397.08 461.08 390.62 441.89"/><polygon class="cls-2" points="399.88 486.76 403.05 498.59 378.87 498.38 399.88 486.76"/><polygon class="cls-2" points="370.84 306.11 350.9 323.4 366.54 323.59 376.76 308.78 370.84 306.11"/><path class="cls-2" d="M387.77,322.95s-.93,12.85-2.12,18.53-6.77,7.81-6.77,7.81l8.9-26.34Z"/><path class="cls-2" d="M271.61,133.91s1.32,4.53,1.56,9.26-4.94,5.75-4.94,5.75l3.38-15.01Z"/><polygon class="cls-2" points="270.6 170.98 273.18 158.38 263.17 157.09 270.6 170.98"/><polygon class="cls-2" points="401.49 498.9 380.75 498.9 370.43 498.9 373.31 493.77 401.49 498.9"/><polygon class="cls-2" points="402.44 496.33 404.13 498.9 401.49 498.9 392.91 486.76 402.44 496.33"/><rect class="cls-1" x="235.75" y="498.9" width="35.86" height="9"/><rect class="cls-1" x="401.49" y="488.58" width="4.85" height="17.19"/><path class="cls-2" d="M384.53,436.78s-.45,33.43-6.58,46.52c-6.12,13.09,15.64,5.53,15.64,5.53l-9.07-52.05Z"/><polygon class="cls-2" points="268.23 369.77 262.17 374.87 261.59 367.69 268.23 369.77"/><polygon class="cls-2" points="272.83 376.14 271.61 383.3 261.09 380.87 272.83 376.14"/><polygon class="cls-2" points="369.02 124.72 370.06 131.38 361.6 136.83 369.02 124.72"/><polygon class="cls-1" points="365.26 124.72 369.02 124.72 369.6 121.72 365.26 124.72"/><polygon class="cls-2" points="372.47 301.02 374.32 310.14 377.64 301.4 372.47 301.02"/><polygon class="cls-2" points="379.25 295.18 381.46 311.34 378.53 312.89 376.76 290.81 379.25 295.18"/><polygon class="cls-2" points="376.87 406.22 380.75 413 376.87 413 376.87 406.22"/><polygon class="cls-2" points="349.63 362.4 348 354.06 354.85 351.98 349.63 362.4"/><polygon class="cls-2" points="238.11 484.37 244.18 497.17 251.56 493.77 238.11 484.37"/><polygon class="cls-2" points="217.77 421.06 226.54 425.21 220.07 429.6 217.77 421.06"/><polygon class="cls-2" points="213.55 414.13 213.55 417.13 216.32 437.63 219.22 437.63 213.55 414.13"/><path class="cls-2" d="M212.71,366.93s.82,5.62,1.84,7.1c1.02,1.48,1.63-1.36,1.63-1.36l-2.2-8.84-1.27,3.1Z"/><path class="cls-1" d="M212.48,366.13s.45,.64,.41,4.12c-.03,3.48-1.02-1.44-1.02-1.44l.61-2.68Z"/><path class="cls-1" d="M316.26,304.92s6.77-12.31,5.06-13.56-6.5,0-6.5,0l1.44,13.56Z"/><g><path class="cls-1" d="M248.43,248.4l12.41,.86s6.72-.86,18.61,3.26c11.89,4.11-29.98,0-29.98,0l-1.03-4.11Z"/><path class="cls-1" d="M250.09,255.19l-.62-2.68,32.04,1.02s2.32,2.95,6.65,13.11-10.27,19.22-10.27,19.22l3.7-16.67,1.67-9.69-6.66,3.6-16.22-1.35s-4.85-.77-5.88-3.54-4.39-3.02-4.39-3.02Z"/><path class="cls-1" d="M248.43,248.4s23.22,.14,24.59,2.21c1.37,2.07-9.62,4.9-9.62,4.9l-14.97-7.12Z"/><polygon class="cls-1" points="250.09 255.19 255.51 259.65 257.72 256.48 250.09 255.19"/><polygon class="cls-1" points="276.2 263.07 282.21 263.77 283.57 263.93 283.57 258.02 276.2 263.07"/><path class="cls-1" d="M262.95,284.7l19.25-20.93,4.98,4.6-3.62,12.84-11.31,12.04-12.73-1.16s0-3.67,3.42-7.39Z"/><path class="cls-1" d="M287.19,264.4s4.7,6.1,.16,11.86c-4.54,5.76-5.07-7.08-5.07-7.08v-8.47l4.91,3.68Z"/><path class="cls-1" d="M272.45,250.21s7.67,1.85,8.64,2.98-4.32,3.66-4.32,3.66l-4.32-6.65Z"/><path class="cls-1" d="M259.53,292.09l7.43,14.59s14.74-1.03,22.36-3.21c7.62-2.19,6.26-1.16,6.26-1.16l-3.68-13.31-26.69,3.92,2.52-6.62-8.21,5.79Z"/><polygon class="cls-1" points="270.71 288.17 268.83 299.36 262.24 292.48 270.71 288.17"/><path class="cls-1" d="M269.09,306.52l-2.62,2.29s-8.05,8.68-8.76,13.5-.39,8.62-.39,8.62c0,0,6.85,9.19,6.91,10.8s14.8-2.19,14.8-2.19c0,0,14.93-8.29,13.12-9-1.81-.71-25.69,.77-25.69,.77l1.26-7.46,4.91-.84s.43-.42,1.18-1.13c4.59-4.39,20.98-20.01,21.76-19.57,.9,.51-3.81-4.18-3.81-4.18l-24.43,4.44,1.75,3.94Z"/><path class="cls-1" d="M281.65,318.05l-9.69,4.63-7.67,.9,.43,10.63,27.59-3.46,.2-.36-9.43-12.34s-.52-.43-1.42,0Z"/><polygon class="cls-1" points="264.24 341.73 259.64 334.12 266.96 339.39 269.8 331.46 270.66 339.91 264.24 341.73"/><path class="cls-1" d="M292.51,330.39s.55,.4-2.03,2.15c-2.58,1.75-5.9,.46-5.9,.46l7.93-2.61Z"/><polygon class="cls-1" points="257.33 330.93 261.94 337.92 263.63 334.01 257.33 330.93"/><path class="cls-1" d="M262.24,338.42s-8.34,12.51-8.21,15.33,.45,9.26,4.1,9.13c3.65-.13,7.02-1.29,7.02-1.29,0,0,9.09-14.92,11.33-15.43,.26-.06,.31-.29,.2-.65-.85-2.81-11.42-13.59-11.42-13.59l-3.01,6.49Z"/><polygon class="cls-1" points="285.13 336.01 275.65 346.7 269.67 338.58 285.13 336.01"/><path class="cls-1" d="M256.08,362.02s7.99,10.4,8.21,11.09,20.84,0,20.84,0c0,0,.77-.28,1.88-.66,2.48-.86,6.66-2.24,7.73-2.24,1.55,0,8.92-1.16,8.92-1.16l3.36,.39-11.34-15.3s-23.73,4.06-30.53,7.46c-6.8,3.4-9.07,.43-9.07,.43Z"/><path class="cls-1" d="M303.02,337.92s-9.95,17.76-9.69,20.72,14.99,12.47,14.99,12.47l-7.5-14.66-1.42-6.3,3.62-12.23Z"/><polygon class="cls-1" points="263.63 354.51 266.47 365.97 258.18 364.77 256.08 359.15 263.63 354.51"/><path class="cls-1" d="M274.5,358.55s19.81-5.8,22.96-4.41-6.85,9.64-6.85,9.64l-16.11-5.23Z"/><path class="cls-1" d="M303.53,339.22s-2.37,6.94-1.31,11.44,2.48,15.13,4.8,17.92-16.41-6.35-16.41-6.35l12.92-23.02Z"/><polygon class="cls-1" points="293.32 370.47 293.32 373.11 307.8 373.11 308.32 371.11 302.22 364.42 293.32 370.47"/><polygon class="cls-1" points="286.29 372.71 291.13 372.71 292.56 370.67 286.29 372.71"/><polygon class="cls-1" points="294.75 371.69 288.57 371.11 290.09 373.11 294.75 373.42 294.75 371.69"/><path class="cls-1" d="M318.01,353.92l-5.69,16.75s-.65,1.62,0,2.03,21.45,.41,21.45,.41l-2.46-7.15-.52-9.9s-13.05-.94-12.8-2.14Z"/><path class="cls-1" d="M303.02,337.92s2.97-8.47,10.21-10.91c7.24-2.44,9.82-2.57,11.12-2.44s12.92,2.06,14.73,6.36c1.81,4.31,1.42,8.42-.78,9.07-2.2,.64-1.68-7.73-1.68-7.73l-15-2.94-10.83,.51-7.77,8.08Z"/><path class="cls-1" d="M307.02,337.92s4.78-5,11.12-5,10.63,.47,14.73,3.09,5.43,3.99,5.43,3.99l-.78-9.6-17.45-2.74-8.04,.77-7.3,6-5.82,11.74,8.11-8.25Z"/><path class="cls-1" d="M300.82,329.19s1.53,8.36,1.54,10.03,1.69,.81,1.69,.81l.65,4.08s.04,3.18,6.09,8.23c6.05,5.05,21.44-.51,21.44-.51l-.9-6.56-13.83,5.01-9.18-7.46-7.5-13.63Z"/><path class="cls-1" d="M307.02,337.92s4.62,5.39,14.6,7.35c9.97,1.96,16.68-5.27,16.68-5.27l1.92-5.01,.66,12.43s.13,2.36-3.88,5.45c-4.01,3.09-17.84,4.11-17.84,4.11l-3.62-7.59-9.18-4.76-1.71-8.43,2.35,1.72Z"/><polygon class="cls-1" points="334.25 336.91 339.46 341.35 338.3 334.21 334.25 336.91"/><polygon class="cls-1" points="306.61 348.08 302.22 353.92 299.4 350.15 303.79 337.78 306.61 348.08"/><polygon class="cls-1" points="308.17 371.69 310.13 373.11 304.67 373.11 308.17 371.69"/><path class="cls-1" d="M303.15,355.29s2.32,11.96,5.17,15.82-13.57-5.79-13.57-5.79l8.4-10.03Z"/><polygon class="cls-1" points="302.22 346.7 304.11 362.88 296.94 360.24 302.22 346.7"/><polygon class="cls-1" points="281.55 373.11 293.32 364.94 300.82 373.42 281.55 373.11"/><path class="cls-1" d="M318.61,344.53s7.57,1.92,17.12-2.4-6.09,8.93-6.09,8.93l-11.03-6.52Z"/><path class="cls-1" d="M306.34,339.22s2.57-3.25,4.61-4.24c2.04-.99,1.09-3.05,1.09-3.05l-7.93,4.98,2.23,2.31Z"/><polygon class="cls-1" points="304.11 335.53 308.18 324.53 296.94 320.83 302.22 332.79 304.11 335.53"/><path class="cls-1" d="M292.56,312.86l10.01,21.35,4.46-6.56s9.05-.26,20.03-6.82c10.99-6.56,13.83-9.64,13.83-9.64,0,0,1.68-1.67,.65-2.7-1.03-1.03-6.46-11.99-6.46-11.99,0,0-1.42-2.15-2.84-1.51-1.42,.64-39.67,17.87-39.67,17.87Z"/><path class="cls-1" d="M317.75,280.97s-12.09,17.87-17.23,21.09c-5.13,3.21-7.97,8.24-7.97,8.24,0,0-.57,3.1,1.39,5.53,1.96,2.43,16.84-2.97,16.84-2.97l8.21-13.01,2.11-3.35s1.78-5.11,1.67-10.64-14.13,14.92-14.13,14.92l9.36-14.92-.26-4.89Z"/><path class="cls-1" d="M333.78,294.87s-2.33-.39-6.33,.76-12.28,6.69-12.28,6.69l10.34,1.41,8.27-8.86Z"/><path class="cls-1" d="M316.52,271.46l6.26,14.4-14.6,18.52,7.3-21.47,2.27-1.93s-3.41-3.73-13.08-6.43c-9.67-2.7-14.71,3.97-14.71,3.97v-9.33s2.58-6.34,4.78-6.47,11.12,.51,12.28,1.22,8.53,5.29,9.5,7.52Z"/><polygon class="cls-1" points="304.7 247.49 304.18 264.64 312.71 269.23 318.66 247.49 304.7 247.49"/><path class="cls-1" d="M289.96,273.26s-.9,7.97-.64,8.87,1.41,4.24,3.16,4.18c1.75-.06,2.27-.45,2.27-.45l3.33-3.09,2.74-5.03-10.85-4.49Z"/><polygon class="cls-1" points="303.01 274.16 296.94 282.13 297.25 283.54 302.22 280.5 309.41 276.12 309.41 271.59 303.01 274.16"/><polygon class="cls-1" points="309.87 294.87 306.7 301.8 311.42 302.51 309.87 294.87"/><path class="cls-1" d="M313.63,278.07s1.8,1.92,1.99,5.47,3.62-.76,3.62-.76l-2.26-5.21-3.35,.51Z"/><path class="cls-1" d="M313.63,286.83s3.22-6.76,3.15-7.34,1.1,7.84,1.1,7.84l-4.25-.5Z"/><path class="cls-1" d="M330.81,356.07s.2-.02,.52-.04c.91-.06,2.81-.15,4,.04,1.62,.26,11.63-.06,11.63-.06,0,0,5.17-.07,6.59-.72s6.46-.71,9.95-3.6-5.17,5.27-5.17,5.27l-8.47,6.55h-21.15l2.09-7.45Z"/><path class="cls-1" d="M333.38,371.97l13.71-.92s6.01-.33,10.53-7.53,6.71-12.44,6.71-12.44l-20.73,9.49-13.05,.95-1.36,6.76,4.19,3.69Z"/><path class="cls-1" d="M344.37,356.08s11.7-.77,14.8-2.64c3.1-1.87-7.4,7.77-7.4,7.77l-7.4-5.13Z"/><polygon class="cls-1" points="334.25 355.97 340.89 356.15 338.3 359.54 334.25 355.97"/><polygon class="cls-1" points="327.97 355.83 335.33 356.07 332.23 359.54 327.97 355.83"/><path class="cls-1" d="M340.31,336.65s8.85,10.48,10.46,12.28c1.62,1.8,4.38,5.79,4.38,5.79l9.18-3.65s1.56-3.88,1.11-5.1-2.84-4.69-4.52-6.94c-1.68-2.25-8.34-9.58-8.34-9.58l-15.49-.74,3.22,7.94Z"/><polygon class="cls-1" points="340.35 337.36 353.27 352.09 358.27 348.87 342.37 333.24 337.57 333.56 340.35 337.36"/><polygon class="cls-1" points="354.97 352.92 355.43 356.71 363.83 351.63 363.5 348.99 354.97 352.92"/><path class="cls-1" d="M336.04,298.43s14.41,12.31,18.16,17.78c3.75,5.46,4.52,8.32,4.52,8.32l10.66-11.8s.13-1.99-7.75-9.97c-7.88-7.97-10.32-12.09-10.32-12.09l-15.27,7.75Z"/><polygon class="cls-1" points="322.66 285.34 320.27 280.09 319.24 288.88 322.66 285.34"/><path class="cls-1" d="M322.34,288.88s5.33,5.4,7.99,6.11c2.67,.71,4.48,3.72,4.48,3.72l2.76-.51,7.07-1.35,8.19-4.01,4.34-5.51,2.13-3.15-11.7,1.22-10.04-4.16-7.28-3.69-7.95,11.32Z"/><polygon class="cls-1" points="330.81 276.28 320.6 291.19 324.86 286.76 330.81 280.97 330.81 276.28"/><path class="cls-1" d="M335.28,280.09s13.11,5.24,14.77,5.07c1.66-.17-5.21,5.53-5.21,5.53l-9.55-10.59Z"/><path class="cls-1" d="M330.81,276.28s.78-.58,2.46,0,7.26,5.84,7.26,5.84l-7,.98-3.55-3.92,.84-2.89Z"/><path class="cls-1" d="M342.31,247.49l-7.95,13.62,4.98,1.59,12.15-.27s.38,.07,1.02,.16c2.65,.39,9.76,1.28,13.19,.1,4.27-1.46,5.75-2.23,5.75-2.23l2.47,2.82v-15.8s-10.48,.52-31.61,0Z"/><path class="cls-1" d="M360.69,276.74s-2.37-7.28-7.79-14.09c-5.42-6.82-8.01-5.79-8.01-5.79l15.8,19.88Z"/><path class="cls-1" d="M334.36,261.11s.93,3.28,7.51,11.57c6.58,8.29,8.17,12.48,8.17,12.48l9.26-.97s1.87-1.58,2.13-4.1-2.48-7.56-2.48-7.56l-10.06-13.55-14.54,2.12Z"/><polygon class="cls-1" points="351.81 315.93 357.37 317.17 352.71 319.48 351.81 315.93"/><path class="cls-1" d="M326.78,321l-1.53,1.44s-.16,2.25,.55,2.86,13.12,4.69,13.12,4.69l10.37,.42,11.4-.02s2.68-7.7,4.49-10.26,4.09-5.64,4.2-7.4-14.8,4.97-14.8,4.97l-2.78-1.78s-5.76-1.61-12.56-4.44c-6.81-2.83-12.47,9.51-12.47,9.51Z"/><path class="cls-1" d="M292.51,330.39s-1.61,3.81-10.95,7.73c-9.34,3.91-1.07-7.19-1.07-7.19l12.02-.54Z"/><polygon class="cls-1" points="276.48 346.17 281.56 340.03 270.51 338.44 276.48 346.17"/><path class="cls-1" d="M295.68,274.65s.53,1.24,6.88,3.87-11.95-1.77-11.95-1.77l5.07-2.1Z"/><path class="cls-1" d="M303.9,277.56s-7.31-1.03-9.72-2.29-.86,5.71-.86,5.71l10.58-3.41Z"/><path class="cls-1" d="M293.58,263.28s.05-2.11,8.64-.18,1.89,5.36,1.89,5.36l-10.53-5.17Z"/><polygon class="cls-1" points="310.79 266.38 307.02 263.93 296.94 262.29 298.07 267.77 310.79 266.38"/><polygon class="cls-1" points="297.25 283.54 300.82 282.34 306.37 277 297.25 283.54"/><polygon class="cls-1" points="308.18 277 301.13 282.05 297.26 279.35 308.18 277"/><polygon class="cls-1" points="333.38 371.97 334.25 373.11 325.83 373.11 333.38 371.97"/><polygon class="cls-1" points="312.32 372.71 312.32 373.11 328.22 373.11 325.23 367.38 312.32 372.71"/><path class="cls-1" d="M364.48,350.69s-7.7,14.06-7.63,14.7-5.54,4.26-5.54,4.26l-8.61-2.27,21.79-16.7Z"/><polygon class="cls-1" points="362.22 355.49 356.85 365.39 352.71 363.97 362.22 355.49"/><path class="cls-1" d="M323.83,324.53s1.93-.39,4.88,.87,.48,2.78,.48,2.78l-5.36-3.65Z"/></g><polygon class="cls-1" points="291.34 308.07 292.49 305.27 294.34 306.32 291.34 308.07"/><polygon class="cls-1" points="331.32 365.97 334.79 374.17 320.08 374.17 313.49 367.24 331.32 365.97"/><polygon class="cls-1" points="280.46 265.54 266.47 277.01 277.89 282.54 280.46 265.54"/><polygon class="cls-2" points="339.46 249.45 369.16 249.45 369.02 241.85 337.09 241.85 339.46 249.45"/><polygon class="cls-2" points="272.45 250.21 246.62 249.45 248.43 247.24 276.48 243.66 272.45 250.21"/><polygon class="cls-2" points="376.45 265.23 372.8 259.65 369.39 261.35 375.06 273.69 376.45 265.23"/><polygon class="cls-2" points="283.87 240.89 283.06 245.54 284.22 246.05 284.36 243.96 283.87 240.89"/><polygon class="cls-1" points="284.48 244.66 283.87 247.68 285.17 247.24 284.48 244.66"/><path class="cls-1" d="M295.16,306.74s-3.99,3.15-2.6,6.12,6.84-1.05,6.84-1.05l-4.24-5.07Z"/><path class="cls-1" d="M296.15,302.51s-5.61,7.03-3.64,9.5c1.96,2.48,8.31-2.87,8.31-2.87l-5.23-6.82,.56,.19Z"/></svg>