<?xml version="1.0" encoding="UTF-8"?><svg xmlns="http://www.w3.org/2000/svg" viewBox="0 0 623.62 623.62"><defs><style>.cls-1{fill:#fff;}.cls-2{fill:#231f20;}</style></defs><g id="Layer_1"><rect class="cls-2" x="124.72" y="124.72" width="17.01" height="374.17"/><rect class="cls-2" x="157.19" y="124.72" width="17.01" height="374.17"/><rect class="cls-2" x="189.66" y="124.72" width="17.01" height="374.17"/><rect class="cls-2" x="222.13" y="124.72" width="17.01" height="374.17"/><rect class="cls-2" x="254.6" y="124.72" width="17.01" height="374.17"/><rect class="cls-2" x="287.07" y="124.72" width="17.01" height="374.17"/><rect class="cls-2" x="319.54" y="124.72" width="17.01" height="374.18"/><rect class="cls-2" x="352.01" y="124.72" width="17.01" height="374.17"/><rect class="cls-2" x="384.48" y="124.72" width="17.01" height="374.17"/><rect class="cls-2" x="416.95" y="124.72" width="17.01" height="374.17"/><rect class="cls-2" x="449.42" y="124.72" width="17.01" height="374.17"/><rect class="cls-2" x="481.89" y="124.72" width="17.01" height="374.17"/><g><path class="cls-1" d="M333.86,249.45v8.92s-22.52-.51-30.49-3.74c-7.98-3.23-21.81-5.11-23.05-4.43s-5.67,4.77-7.8,11.57c-.42,1.33,1.52,2.49,4.92,3.48,.33,.09,.67,.19,1.02,.28,10.19,2.65,30.98,3.97,43.37,3.87,.44,0,.86,0,1.28-.02,4.87-.08,8.19-.41,8.63-.98,.47-.62,1.09-1.47,1.76-2.4,2.08-2.9,4.62-6.58,4.62-6.58l-4.26-9.98Z"/><path class="cls-1" d="M278.11,265.45l2.67,.36,26.84,3.61-8.16,8.7s-19.14-13.93-21.36-12.67Z"/><path class="cls-1" d="M276.54,264.98s15.65,7.69,14.41,8.54,5.14-1.78,5.14-1.78c0,0-16.59-7.98-19.55-6.76Z"/><polygon class="cls-1" points="304.43 271.74 311.7 266.71 301.24 266.71 304.43 271.74"/><path class="cls-1" d="M292.86,273.48s-9.18-.12-17.16-1.74c-7.98-1.63-15.6-1.44-18.97,0s42.73,6.37,42.73,6.37l-6.6-4.63Z"/><path class="cls-1" d="M252.31,285.26l4.43-13.52,42.73,6.37s-11.88,8.51-16.84,7.83-30.32-.68-30.32-.68Z"/><polygon class="cls-1" points="283.94 268.78 285.46 274.35 287.94 274.35 286.32 265.36 283.94 268.78"/><path class="cls-1" d="M305.44,271.74s3.25,17.44,1.03,23.4c-7.53,20.26-42.11,40.51-40.16,43.23s6.74,0,7.45,1.19c.71,1.19,35.81-25.53,35.81-25.53,0,0,2.84-9.7,2.13-10.55-.71-.85-.46-31.81-6.26-31.74Z"/><polygon class="cls-1" points="299.47 278.11 307.62 286.62 305.29 267.39 299.47 278.11"/><path class="cls-1" d="M252.31,285.26s4.79,5.45,15.6,10.38c10.81,4.94,18.04,12.09,18.04,12.09l1.29,1.19v-2.21l7.9,5.1,8.41-10.76s-24.11-15.11-32.8-19.2c-8.69-4.09-18.44,3.4-18.44,3.4Z"/><path class="cls-1" d="M287.23,282.54s1.77,8.85,.71,12.77c-1.06,3.91-.71,13.62-.71,13.62,0,0-1.08,11.32-10.69,19.61-9.61,8.29-10.23,9.84-10.23,9.84l-5.14-14.47s26.97-24.19,26.06-41.36Z"/><polygon class="cls-1" points="278.9 319.31 286.32 282.54 287.88 286.62 278.9 319.31"/><path class="cls-1" d="M309.57,314.03l-1.06,14.98s-2.3,4.94-7.27,9.36c-4.96,4.43-10.46,6.13-10.46,6.13l-29.61,6.47s11.85-13.62,27.11-24.51c15.26-10.89,21.29-12.43,21.29-12.43Z"/><path class="cls-1" d="M259.04,352.16l-1.24,14.81s5.67-1.87,20.12-4.26c14.45-2.38,27.24-7.83,27.24-7.83l4.41-2.72v-15.66s-1.95-4.77-6.03-4c-4.08,.77,2.93,5.19,2.93,5.19l-2.93,6.64s-41.49,3.23-44.5,7.83Z"/><polygon class="cls-1" points="294.86 341.26 297.72 344.84 303.54 344.33 306.47 337.69 302.62 334.39 294.86 341.26"/><polygon class="cls-1" points="276.54 346.03 300.66 342.97 297.34 348.75 276.54 346.03"/><path class="cls-1" d="M297.01,357.88s27.09,7.89,25.68,10.44-4.61,5.85-4.61,5.85h9.22l-3.9-15.55s-.12-6.4-13.83-10.72c-13.71-4.33-12.56,9.98-12.56,9.98Z"/><path class="cls-1" d="M257.8,366.97l3.37,1.36s-.53,5.85,1.06,5.85h46.27l-23.14-12.97s-28.28,3.55-27.57,5.76Z"/><path class="cls-1" d="M329.25,269.07s2.13,1.22,8.87-5.25c6.74-6.47-7.09-1.19-7.09-1.19l-1.78,7.23"/></g><polygon class="cls-1" points="294.87 303.63 301.05 319.31 314.15 300.92 294.87 303.63"/><path class="cls-1" d="M336.55,266.89s-1.35,3.53-8.5,2.52c-7.15-1.01,8.5-2.52,8.5-2.52Z"/><path class="cls-1" d="M324.98,264.85l-6.64,3.39s11.81,2.32,15.01,.98-3.13-5.93-3.13-5.93l-5.23,1.55Z"/><polygon class="cls-2" points="336.55 244.15 336.55 257.74 335.86 258.37 331.36 254.36 336.55 244.15"/><path class="cls-2" d="M319.54,257.34s15.63,1.66,16.32,1.03-16.32-1.03-16.32-1.03Z"/><path class="cls-1" d="M328.05,269.41s7.29,1.31,12.07-2.02c4.78-3.33-12.07,2.02-12.07,2.02Z"/><polygon class="cls-1" points="298.1 264.85 291.02 278.11 298.1 271.74 298.1 264.85"/><path class="cls-1" d="M377.75,336.75c-1.03,.66-1.8,1.56-2.82,2.22-1.03,.65-2.32,1.09-3.38,1.72-5.71,3.37-11.42,6.76-17.09,10.18-5.05,3.04-10.05,6.13-15.05,9.22-1.77,1.08-1.98,1.93-.88,3.58,.52-.39,1.04-.72,1.54-1.09,2.27-1.67,5.01-2.67,8.17-2.86,1.09-.07,2.39,.13,3.36,.52,3.31,1.36,6.61,2.75,9.76,4.32,2.35,1.17,4.69,2.45,6.62,3.97,2.18,1.73,3.01,3.73,2.82,5.64h-12.12c-.61-1.99-1.66-3.93-2.53-5.88-.84-1.88-2.04-2.29-4.62-1.65-3.03,.73-5.27,2.27-7.44,3.9-.87,.65-1.06,1.17-.28,1.8,.76,.61,1.51,1.22,2.26,1.83h-10.57c-.74-1.07-1.13-2.29-1.78-3.4-.86-1.48-.35-3.62-.23-4.82,.62-6.18,3.65-11.9,7.06-17.49,2.25-3.71,5.44-7.03,9.18-10.02,1.44-1.15,5.4-2.66,6.93-3.74-.09-.11-.2-.22-.29-.32-2.34-.14-7.03,.22-9.36,.06-1.29-.09-2.58-.25-3.87-.42-2.59-.36-4.39-1.48-5.94-3.07-2.46-2.54-5.18-4.95-7.82-7.39-1.49-1.39-1.82-3.97-.74-5.58,2.6-3.82,5.13-7.66,7.7-11.48,.58-.86,1.23-1.71,1.8-2.57,.82-1.2,.41-1.75-1.4-1.69-2.79,.1-5.58,.22-8.32,.54-4.61,.55-4.57,.62-5.83-2.62-1-2.54-2.04-5.07-3.1-7.6-.39-.96,0-1.44,1.28-1.8,5.77-1.62,11.51-3.29,17.24-4.97,1.82-.54,3.59-1.16,5.4-1.74,2.1-.67,2.15-.83,.36-1.83-4.89-2.72-9.86-5.37-14.66-8.18-1.8-1.04-3.35-2.37-4.83-3.68-1.98-1.78-1.44-3.93-1.01-5.98,.63-2.96,1.78-5.88,2.02-8.87,.26-2.74,2.61-3.82,5.35-4.55,1.91-.51,3.83-1.01,5.75-1.51h39.8c-3.01,1.68-6.23,3.13-10,4.04-5.11,1.22-9.9,3.19-14.88,4.73-3.88,1.2-7.85,2.25-11.75,3.42-.62,.18-1.11,.56-1.66,.86,.44,.43,.77,.98,1.33,1.26,6.14,3.09,14.48,6.8,18.79,11.29,.57,.6,.84,1.47,.9,2.22,.35,4.76-.95,9.4-2.3,14.01-.53,1.81-5.38,3.02-7.42,4.01-1.14,.54-2.34,1.05-3.58,1.47-1.36,.44-1.4,1.02-.71,1.87,1.74,2.11,3.49,4.22,5.08,6.39,.65,.91,.91,1.97,1.32,2.97,.3,.73,0,1.27,.35,2.27-2.04,.83-1.48,3.09-2.53,4.73-1.37,2.17-2.87,4.32-4.26,6.5-.27,.4-.25,.89-.36,1.33,.59,.07,1.22,.24,1.8,.17,6.03-.71,12.04-1.53,18.09-2.15,2.14-.21,4.37,0,6.54,.17,.63,.05,1.42,.56,1.72,1.02,2.32,3.36,4.59,6.77,6.81,10.18,.99,1.53,.18,3.33-1.72,4.54Z"/><g><path class="cls-2" d="M172.73,124.72s4.99,2.61,2.44,15.38c-.92,4.58-1.5,3.86-1.88,1.04-.67-5.03-.56-16.42-.56-16.42Z"/><path class="cls-2" d="M173.18,139.76s-23.84,57.87-25.03,61.79,21.79-11.23,21.79-11.23l5.1-49.36-1.85-1.19Z"/><path class="cls-2" d="M205.68,155.76s-14.13,41.19-22.81,48.68c-8.68,7.49-31.32,15.49-31.32,15.49l39.66-41.36,14.47-24v1.19Z"/><path class="cls-2" d="M140.66,208.19s10.38-13.45,21.79-16c11.4-2.55,29.49-14.82,30.32-16.19,.83-1.37-18.47,31.17-18.47,31.17l-27.85,15.83s-11.06,7.73-10.38,10.59,4.6-25.4,4.6-25.4Z"/><path class="cls-2" d="M163.6,215.15s-21.42,47.92-18.69,53.33-1.36,4.17-1.36,4.17c0,0-5.51-18.16-7.52-23.95-2.01-5.79,1.88-22.47,1.88-22.47l19.59-17.53,6.1,6.45Z"/><path class="cls-2" d="M155.32,234.61s25.51,21.07,31.98,41.32c6.47,20.26,6.98,26.38,6.98,26.38l-1.49,16-4.3-26.55-15.32-14.28s-19.51-19.58-25.07-23.93-7.44-15.75-7.44-15.75l14.66-3.19Z"/><path class="cls-2" d="M144.73,266.06s8.01,10.89,30.82,20.77c22.81,9.87-16.85,10.04-16.85,10.04,0,0-13.28-7.28-15.49-25.34s1.52-5.47,1.52-5.47Z"/><path class="cls-2" d="M170.76,275.08s6.37,7.91,11.86,16.94c3.8,6.25,7.18,13.04,7.74,18.12,1.36,12.43,1.53-10.21,1.53-10.21l-6.64-23.47-14.49-1.38Z"/><path class="cls-2" d="M158.7,296.87l19.23,9.87s5.57-4.29,6.3-7.49c.73-3.2,1.87-8.85,1.87-8.85l-27.4,6.47Z"/><path class="cls-2" d="M190.36,310.14s2.55,10.04-11.74,33.36c-14.3,23.32-39.66,34.21-39.66,34.21l3.55,20.26,36.28-27.06s12.09-16.17,13.11-33.02c1.02-16.85,3.57-21.17,3.57-21.17l-5.11-6.57Z"/><path class="cls-2" d="M184.75,296.87l3.39,19.06s-.56,9.36-17.39,20.26c-16.83,10.89-15.63,24.34-15.63,24.34,0,0-5.45-26.89-4.43-30.47s22.98-20.77,22.98-20.77l8.34-6.13,2.74-6.3Z"/><path class="cls-2" d="M183.82,334.2s-19,30.41-36.7,37.9c-17.7,7.49-13.45,23.32-13.45,23.32l28.89-23.83,21.26-37.39Z"/><path class="cls-2" d="M155.12,360.53s0,5.11,6.64,8.68,10.64,6.46,10.64,6.46c0,0,23.06,13.79,27.83,19.75,4.77,5.96,2.21-12.94,2.21-12.94l-3.57-7.49s-7.15-6.81-19.74-15.83c-12.6-9.02-16.56-11.91-16.56-11.91l-2.5-9.36-4.94,8v14.64Z"/><path class="cls-2" d="M161.4,383.88s20.65,17.67,22.42,24.82c1.77,7.15-6.57,3.23-6.57,3.23,0,0-11.78-12.43-34.74-13.96-22.96-1.53,18.89-14.1,18.89-14.1Z"/><path class="cls-2" d="M169.36,416.08s24.4-7.38,30.87-20.66,3.91,17.58,3.91,17.58c0,0-6.14,7.6-13.45,13.56-3.77,3.08-7.86,5.72-11.57,6.64l-7.99,2-2.9,.73-3.4-18.04,4.53-1.81Z"/><path class="cls-2" d="M190.69,426.56s2.9,29.96-1.36,42.56c-4.26,12.6-12.43,29.47-12.43,29.47l32-.87-7.66-26.55-10.56-44.6Z"/><path class="cls-2" d="M171.13,435.21s10.55,.73,21.78,11.62c11.23,10.89,11.73,17.36,11.73,17.36v-36.6l-20.57,3.56-12.94,4.05Z"/><path class="cls-2" d="M189.85,422.32s1.53,6.3,2.21,9.87,5.28,1.19,5.28,1.19l-1.87-19.36-5.62,8.3Z"/><polygon class="cls-2" points="187.89 425.21 192.91 429.62 190.4 436.78 180.32 429.97 187.89 425.21"/><polygon class="cls-2" points="201.93 445.89 204.32 481.79 194.61 455.51 201.93 445.89"/><polygon class="cls-2" points="196.49 441.89 194.61 459.76 202.94 461.08 196.49 441.89"/><polygon class="cls-2" points="205.75 486.76 208.91 498.59 184.73 498.38 205.75 486.76"/><polygon class="cls-2" points="176.71 306.11 156.76 323.4 172.4 323.59 182.62 308.78 176.71 306.11"/><path class="cls-2" d="M193.63,322.95s-.93,12.85-2.12,18.53c-1.2,5.67-6.77,7.81-6.77,7.81l8.9-26.34Z"/><polygon class="cls-2" points="207.35 498.9 186.61 498.9 176.29 498.9 179.18 493.77 207.35 498.9"/><polygon class="cls-2" points="208.31 496.33 209.99 498.9 207.35 498.9 198.78 486.76 208.31 496.33"/><path class="cls-2" d="M190.4,436.78s-.45,33.43-6.58,46.52,15.64,5.53,15.64,5.53l-9.07-52.05Z"/><polygon class="cls-2" points="174.84 124.72 175.88 131.38 167.43 136.83 174.84 124.72"/><polygon class="cls-2" points="178.34 301.02 180.19 310.14 183.51 301.4 178.34 301.02"/><polygon class="cls-2" points="185.11 295.18 187.33 311.34 184.4 312.89 182.62 290.81 185.11 295.18"/><polygon class="cls-2" points="182.74 406.22 186.61 413 182.74 413 182.74 406.22"/><polygon class="cls-2" points="155.5 362.4 153.87 354.06 160.72 351.98 155.5 362.4"/><rect class="cls-2" x="171.65" y="124.72" width="3.16" height="1.86"/></g><path class="cls-2" d="M467.47,136.35h0c-.22,2.3-.6,4.39-1.2,5.9,0,.01-.01,.02-.01,.03v.02c-.79,1.84-1.5-1.3-2.13-6.38-.32-2.69-.62-5.93-.89-9.24-.04-.61-.09-1.23-.14-1.84h4.57c.11,3.08,.18,7.58-.2,11.51Z"/><path class="cls-2" d="M427.63,155.36l6.47,28.6s12.26,17.19,29.11,23.15,15.32,16.85,15.32,16.85l1.36-22.64s-2.72-10.04-17.87-16.34c-15.15-6.3-22.98-14.3-22.98-14.3l-6.81-6.47-2.35-4.53-2.24-4.32Z"/><path class="cls-2" d="M426.78,151.61l7.66,12.94s13.34,12.25,31.69,22.38-7.35,11.66-7.35,11.66l-24.34-23.49-7.66-23.49Z"/><path class="cls-2" d="M462.01,206.65s16,9.13,16.51,17.3-3.06-26.04-3.06-26.04l-13.45,8.75Z"/><path class="cls-2" d="M470.29,212.42l-19.17,7.11s-25.19,10.21-23.49,22.64c1.7,12.43,1.19,7.49,1.19,7.49l20.1-10.21,9.86-3.57,15.83-7.49s4.18-2.34,3.96-5.26c-.22-2.91-2.94-14.66-2.94-14.66l-5.34,3.96Z"/><path class="cls-2" d="M458.78,235.87s21.28,35.23,23.49,35.4,10.06-13.79,10.06-13.79c0,0-1.89-10.38-17.72-29.11-15.83-18.72-15.83,7.49-15.83,7.49Z"/><path class="cls-2" d="M427.63,253.06s12.26,32.85,29.45,50.55,13.22,27.91,13.22,27.91l-3.85,27.4s-1.19-28.94-5.96-29.28-5.11,2.89-5.11,2.89c0,0-29.62-36.94-29.79-48.51-.17-11.57-4.77-16.34-4.77-16.34l6.81-14.64Z"/><path class="cls-2" d="M492.33,257.48l-5.98,27.74s-7.15,8.51-17.7,12.6c-10.55,4.09-13.79,8.17-13.79,8.17l-14.42,6.5-15.03,7.97s-15.66,9.36-15.32,12.26c.34,2.89-3.06,12.94-3.06,12.94l-1.19-25.19s-1.02-8.68,10.04-13.62c11.06-4.94,17.36-11.57,17.36-11.57,0,0,48.51-21.62,51.4-27.4,2.89-5.79,7.68-10.38,7.68-10.38Z"/><polygon class="cls-2" points="455.37 332.55 466.78 348.89 466.78 330.33 458.1 323.87 455.37 332.55"/><path class="cls-2" d="M410.32,331.9s11.01,10.35,31.44,19.71c20.43,9.36,17.02,36.26,17.02,36.26l-5.45-6.3s-18.55-13.28-24-13.45c-5.45-.17-19.01-13.79-19.01-13.79,0,0-2.94-1.48-3.62-15.81-.68-14.34,3.62-6.62,3.62-6.62Z"/><path class="cls-2" d="M462.56,342.85s-1.4,3.48-18.59,13.36c-17.19,9.87,11.4,16,11.4,16l10.99-14.68v-20.39l-3.8,5.71Z"/><path class="cls-2" d="M456.1,384.77s-.08,.15-.23,.43c-2.35,4.33-21.71,40.11-20.92,42.67,.85,2.72-7.32,21.96-7.32,21.96,0,0,8,23.54,12.94,26.75,4.94,3.21-3.4-7.34-3.4-7.34,0,0,.17-9.7,6.81-20.6,6.64-10.89,13.45-33.36,13.45-33.36l6.64-20.6-5.82-19.85-2.14,9.94Z"/><path class="cls-2" d="M427.63,367.75s-18.55,9.9-19.74,23.35,19.74-23.35,19.74-23.35Z"/><path class="cls-2" d="M445.76,376.43s-30.38,17.56-31.4,23.86c-1.02,6.3-6.52-6.24-6.52-6.24l19.79-26.31h18.21l-.09,8.68Z"/><path class="cls-2" d="M407.84,394.06l2.77,21.56s4.43,8.51,11.06,12.26c6.64,3.74,12.43,9.87,12.43,9.87l3.57-8.85s-9.87-22.13-13.45-20.43c-3.57,1.7-16.39-14.41-16.39-14.41Z"/><path class="cls-2" d="M414.35,400.29s6.76,2.94,12.49,9.47c5.73,6.53-.91,8.57-.91,8.57l-11.57-18.04Z"/><path class="cls-2" d="M443.08,450.16s9.91,25.07,8.55,26.41-15.32,0-15.32,0l6.77-26.41Z"/><path class="cls-2" d="M436.31,458.5s4.94,8.85,4.09,10.38,3.95-15.48,3.95-15.48l-4.02-12.78-4.02,17.87Z"/><polygon class="cls-2" points="437.54 465.71 442.44 471.27 438.72 471.27 432.4 462.35 437.54 465.71"/><path class="cls-2" d="M408.67,312.17s18.13-13.98,24.58-16.9c6.45-2.93,7.66,6.3,7.66,6.3l-32.24,10.61Z"/><path class="cls-2" d="M435.12,246.45s-12,9.45-10.76,13.64-1.83-2.61-1.83-2.61l5.11-17.19,7.49,6.16Z"/><polygon class="cls-2" points="464.05 394.67 465.42 403.01 451.76 431.69 464.05 394.67"/><path class="cls-2" d="M466.19,124.84c-.94,1.04-2.18,1.59-2.95,1.84-.43,.15-.72,.21-.72,.21l.46-2.05h3.21Z"/><polygon class="cls-2" points="464.88 148.95 467.47 136.35 457.46 135.06 464.88 148.95"/><polygon class="cls-2" points="462.52 347.74 456.46 352.85 455.88 345.67 462.52 347.74"/><polygon class="cls-2" points="467.11 354.12 465.9 361.27 455.37 358.85 467.11 354.12"/><polygon class="cls-2" points="432.4 462.35 438.47 475.15 445.84 471.75 432.4 462.35"/><polygon class="cls-2" points="412.06 399.04 420.82 403.19 414.35 407.57 412.06 399.04"/><polygon class="cls-2" points="407.84 392.1 407.84 395.1 410.61 415.61 413.5 415.61 407.84 392.1"/><path class="cls-2" d="M407,344.9s.82,5.62,1.84,7.1c1.02,1.48,1.63-1.36,1.63-1.36l-2.2-8.84-1.27,3.1Z"/><path class="cls-2" d="M451.63,476.57s-.66,18-3.43,22.33h-17.07l5.18-22.33h15.32Z"/><rect class="cls-2" x="436.31" y="458.5" width="6.13" height="10.24"/><g><g><g><path class="cls-1" d="M334.86,249.45v8.92s-22.52-.51-30.49-3.74c-7.98-3.23-21.81-5.11-23.05-4.43s-5.67,4.77-7.8,11.57c-.42,1.33,1.52,2.49,4.92,3.48,.33,.09,.67,.19,1.02,.28,10.19,2.65,30.98,3.97,43.37,3.87,.44,0,.86,0,1.28-.02,4.87-.08,8.19-.41,8.63-.98,.47-.62,1.09-1.47,1.76-2.4,2.08-2.9,4.62-6.58,4.62-6.58l-4.26-9.98Z"/><path class="cls-1" d="M279.11,265.45l2.67,.36,26.84,3.61-8.16,8.7s-19.14-13.93-21.36-12.67Z"/><path class="cls-1" d="M277.54,264.98s15.65,7.69,14.41,8.54,5.14-1.78,5.14-1.78c0,0-16.59-7.98-19.55-6.76Z"/><polygon class="cls-1" points="305.43 271.74 312.7 266.71 302.24 266.71 305.43 271.74"/><path class="cls-1" d="M293.86,273.48s-9.18-.12-17.16-1.74c-7.98-1.63-15.6-1.44-18.97,0-3.37,1.44,42.73,6.37,42.73,6.37l-6.6-4.63Z"/><path class="cls-1" d="M253.31,285.26l4.43-13.52,42.73,6.37s-11.88,8.51-16.84,7.83c-4.96-.68-30.32-.68-30.32-.68Z"/><polygon class="cls-1" points="284.94 268.78 286.46 274.35 288.94 274.35 287.32 265.36 284.94 268.78"/><path class="cls-1" d="M306.44,271.74s3.25,17.44,1.03,23.4c-7.53,20.26-42.11,40.51-40.16,43.23,1.95,2.72,6.74,0,7.45,1.19,.71,1.19,35.81-25.53,35.81-25.53,0,0,2.84-9.7,2.13-10.55s-.46-31.81-6.26-31.74Z"/><polygon class="cls-1" points="300.47 278.11 308.62 286.62 306.29 267.39 300.47 278.11"/><path class="cls-1" d="M253.31,285.26s4.79,5.45,15.6,10.38c10.81,4.94,18.04,12.09,18.04,12.09l1.29,1.19v-2.21l7.9,5.1,8.41-10.76s-24.11-15.11-32.8-19.2c-8.69-4.09-18.44,3.4-18.44,3.4Z"/><path class="cls-1" d="M288.23,282.54s1.77,8.85,.71,12.77c-1.06,3.91-.71,13.62-.71,13.62,0,0-1.08,11.32-10.69,19.61s-10.23,9.84-10.23,9.84l-5.14-14.47s26.97-24.19,26.06-41.36Z"/><polygon class="cls-1" points="279.9 319.31 287.32 282.54 288.88 286.62 279.9 319.31"/><path class="cls-1" d="M310.57,314.03l-1.06,14.98s-2.3,4.94-7.27,9.36c-4.96,4.43-10.46,6.13-10.46,6.13l-29.61,6.47s11.85-13.62,27.11-24.51c15.26-10.89,21.29-12.43,21.29-12.43Z"/><path class="cls-1" d="M260.04,352.16l-1.24,14.81s5.67-1.87,20.12-4.26,27.24-7.83,27.24-7.83l4.41-2.72v-15.66s-1.95-4.77-6.03-4c-4.08,.77,2.93,5.19,2.93,5.19l-2.93,6.64s-41.49,3.23-44.5,7.83Z"/><polygon class="cls-1" points="295.86 341.26 298.72 344.84 304.54 344.33 307.47 337.69 303.62 334.39 295.86 341.26"/><polygon class="cls-1" points="277.54 344.96 301.66 340.69 298.34 348.75 277.54 344.96"/><path class="cls-1" d="M298.02,357.88s27.09,7.89,25.68,10.44c-1.42,2.55-4.61,5.85-4.61,5.85h9.22l-3.9-15.55s-.12-6.4-13.83-10.72c-13.71-4.33-12.56,9.98-12.56,9.98Z"/><path class="cls-1" d="M258.8,366.97l3.87,6.88-.5-5.51s-.53,5.85,1.06,5.85h46.27l-23.14-12.97s-28.28,3.55-27.57,5.76Z"/><path class="cls-1" d="M330.25,269.07s2.13,1.22,8.87-5.25c6.74-6.47-7.09-1.19-7.09-1.19l-1.78,7.23v-.79Z"/></g><polygon class="cls-1" points="293.86 303.63 300.05 319.31 313.15 300.92 293.86 303.63"/><path class="cls-1" d="M335.55,266.89s-1.35,3.53-8.5,2.52c-7.15-1.01,8.5-2.52,8.5-2.52Z"/><path class="cls-1" d="M323.98,264.85l-6.64,3.39s11.81,2.32,15.01,.98c3.2-1.33-3.13-5.93-3.13-5.93l-5.23,1.55Z"/><path class="cls-1" d="M327.05,269.41s7.29,1.31,12.07-2.02c4.78-3.33-12.07,2.02-12.07,2.02Z"/><polygon class="cls-1" points="295.1 264.85 288.02 278.11 295.1 271.74 295.1 264.85"/><rect class="cls-1" x="235.75" y="505.9" width="35.86" height="1.99"/><path class="cls-2" d="M396.8,496.89l-2.92-10.13-1.43-4.97-1.5-22.52c1.69,3.18,1.82,4.92,1.82,4.92v-36.6l-7.73,1.34-.71-7.31c4.64-4.53,7.95-8.62,7.95-8.62,0,0,1.63-19.75-1.03-20.85,.07-4.13-.67-9.66-.67-9.66l-3.58-7.49s-5.35-5.1-14.95-12.32c2.98-5.47,6.38-13.11,7.58-21.18,.01,0,.01-.01,.01-.02,1.2-5.67,3.96-24.76,3.96-24.76l-1.19-14.4s-.52-6.13-6.98-26.39c-6.47-20.25-31.98-41.32-31.98-41.32,4.31-10.56,8.29-19.46,8.29-19.46,3.41-1.48,7.12-3.21,10.53-5.04s6.52-3.77,8.73-5.67c8.68-7.49,22.81-48.68,22.81-48.68v-1.19l-12.91,21.42h0c-.66,1.1-12.28,9.11-22.75,13.61l5.02-48.65c.06-.26,.12-.54,.18-.85,.73-3.62,.83-6.45,.62-8.65l.1-.07-1.04-6.66-.77,1.26c-.4-.61-.79-1.01-1.06-1.26h-.4c0,.57,.01,1.89,.03,3.58l-5.22,8.53,5.34-3.44c.08,2.25,.2,4.55,.37,6.37,0,0-20.42,49.58-24.41,60.06-4.86,4.16-8.11,8.37-8.11,8.37,0,0-1.46,10.49-2.75,18.04,0,0-.5,2.16-1.05,5.19-.6,.85-.93,1.6-.8,2.16,.11,.47,.31,.09,.57-.85-.91,5.34-1.79,12.55-.6,15.97,.7,2.03,1.84,5.58,3.01,9.33,.57,1.8,1.14,3.64,1.68,5.38,.46,1.48,.89,2.88,1.27,4.13,.1,.3,.18,.59,.27,.86,.04,.14,.08,.27,.12,.4,.02,.08,.04,.15,.07,.22,0,.04,.02,.09,.04,.13,.04,.13,.08,.26,.11,.38,0,.02,0,.03,0,.04,.01,.03,.02,.06,.03,.08,.23,.75,.42,1.39,.57,1.88,2.21,18.06,15.49,25.34,15.49,25.34l18.01,9.24-12.94,11.22c-2.37,1.99-4.83,4.1-6.97,6.04l-.03,.03c-1.62,1.48-3.05,2.85-4.13,4-1.07,1.16-1.78,2.08-1.94,2.66-.7,2.45,1.63,15.8,3.17,24,.35,1.89,.67,3.51,.9,4.65,.19,1.01,.32,1.65,.35,1.79v-.02s.01,.05,.01,.05c0,0,0,2.44,2.2,5.13-3.38,2.74-6.83,5.02-10.2,6.44-17.71,7.49-13.45,23.32-13.45,23.32l7.32-6.04,.34,1.9c-6.32,3.03-9.25,6,1.17,6.69,22.96,1.54,34.74,13.96,34.74,13.96,0,0,.6,.28,1.44,.55-5.26,2.37-9.33,3.6-9.33,3.6l-4.53,1.81,3.4,18.04,2.91-.72s8.86,.61,19,9.12c-.49,10.06-1.86,27.71-5.63,37.37-1.94,4.63-3.89,8.95-5.33,12.07l-2.88,5.13h31.06l-1.84-.34,1.61,.02,.23,.32h2.64l-1.33-2.01Zm-33.12-210.06c-15.51-6.72-24.17-13.9-28.13-17.81-.35-.34-.66-.66-.94-.95-.1-.11-.2-.22-.29-.32-.13-.13-.24-.25-.34-.37-.1-.1-.19-.2-.26-.29h-.01c-.58-.67-.85-1.03-.85-1.03,.11-1.08,.37-2.44,.76-4.01,.29-1.13,.64-2.37,1.04-3.69,.07-.21,.13-.42,.2-.64,.41-1.32,.87-2.71,1.37-4.16,.18,.14,.38,.3,.59,.48,4.82,3.97,16.9,15.9,22.07,21.04,0,0,5.54,6.88,10.74,15.12-1.08-.97-2.98-2.09-5.95-3.37Zm-4.79,49.36c16.83-10.9,17.39-20.26,17.39-20.26l-.82-4.59-2-14.62c2.59,4.81,4.61,9.6,5.03,13.42,.05,.48,.1,.89,.15,1.27,.18,3.04-.38,11.66-8.97,27.1-2.58,3.62-6.54,8.92-11.24,14.32-5.7-4.1-7.73-5.58-7.73-5.58l-.87-3.24c2.21-2.61,5.14-5.28,9.06-7.82Zm20.27,91.78l-.33-1.41s.04,.44,.1,1.21l-.77-.68c.22-.17,.45-.35,.67-.53,.04-.03,.08-.07,.13-.1,.12,.54,.25,1.1,.37,1.66l-.17-.15Zm-6.4-18.44l-1.75-3.07s-.03-.06-.05-.08l-.09-.16c-4.67-8.08-21.33-22.34-21.33-22.34l10.99-8.21s23.07,13.79,27.83,19.75c-2.88,5.92-9.33,10.67-15.6,14.11Z"/><g><path class="cls-2" d="M287.04,290.37c-.38-.23-.77-.45-1.16-.69-.62-.36-1.24-.73-1.86-1.08,.6,.84,1.14,1.59,1.63,2.23,.31,.4,.59,.76,.85,1.07,.26,.32,.5,.6,.71,.81l.53-1.92c-.23-.14-.46-.28-.7-.42Zm10.53-12.58s-.02-.08-.03-.12c-.2-.59-.47-1.32-.82-2.19-.01-.01-.01-.03-.02-.05-.35-.86-.79-1.86-1.34-2.99-.11-.21-.21-.43-.32-.64-.21-.43-.45-.88-.69-1.34-.35-.65-.73-1.34-1.14-2.07-.11-.19-.23-.4-.35-.6-.1-.18-.2-.36-.32-.54-2.6-4.41-6.4-9.95-11.95-16.54-.08-.1-.17-.21-.26-.31,0,0,3.02-1.7,3.79-4,.16,1.14,.22,1.21,.12-.43,0-.01,0-.02,0-.04,0-.02,0-.04,.02-.06v.1s0-.05,.01-.14c.03-.23,.05-.45,.03-.69l1.31-21.8s-2.21-8.14-13.69-14.35c-.02-.02-.04-.03-.06-.04-18.36-10.13-31.69-22.38-31.69-22.38l-7.66-12.94,1.84,5.67-.99-1.92-2.46,22.74s20.21,21.98,36.85,28.55h0s4.14,2.37,8.28,5.77l-19.17,7.11s-22.91,9.3-23.54,20.94l-5.06,17.02s.93,2.05,1.55,3.21l-3.25,7s4.59,4.77,4.76,16.34c.05,2.94,2,7.53,4.88,12.73-4.21,2.49-10.26,6.8-14.92,10.24-3.25,1.51-5.43,3.34-6.88,5.17-2.56,3.23-2.84,6.43-2.84,7.71,0,.37,.02,.58,.02,.58l.85,18.05h0s.31,6.44,.31,6.44l.03,.7s.01-.05,.04-.13c.01-.01,.01-.03,.02-.04,.24,1.47,.93,5.33,1.75,6.52,.39,.99,.77,1.57,1.04,1.91,.27,.33,.44,.42,.44,.42,0,0,11.17,11.21,17.31,13.41,0,0-4.64,2.48-9.43,6.63-4.79,4.16-9.73,10-10.32,16.72-.03,.38-.05,.72-.04,1.02h0s0,2.99,0,2.99l2.78,20.5s4.42,8.51,11.06,12.26c4.79,2.7,9.12,6.63,11.17,8.62-2.18,6.19-5.21,13.34-5.21,13.34,0,0,2.07,6.1,4.76,12.52,1.39,3.31,2.94,6.69,4.45,9.37l.46,.98-.99,3.87s1.67,.16,3.91,.31h10.71c.33-.08,.57-.18,.7-.31,1.05-1.03-4.67-16.33-7.29-23.15l-1.11-3.53c.24-.42,.48-.83,.74-1.25,2.73-4.48,5.48-10.92,7.79-16.95l13.65-28.67-1.36-8.34-5.82-19.85c-.28-1.58-.66-3.22-1.17-4.88l9.31-12.42,.81-5.38,1.61-10.7,.09-.58,1.41-9.34s.76-1.96,.18-5.64c-.02-.11-.04-.23-.07-.35-.37-2.12-1.18-4.78-2.81-7.93-.05-.11-.11-.22-.17-.33-.72-1.37-1.6-2.84-2.66-4.39-.07-.11-.15-.23-.23-.34-1.84-2.66-4.21-5.57-7.25-8.72,2.06-1.56,5.63-3.78,11.37-6,2.16-.84,4.18-1.86,6.02-2.95,.07-.05,.14-.09,.21-.13,2.85-1.72,5.28-3.61,7.16-5.25,1.38-1.21,2.46-2.28,3.2-3.05,.72-.76,1.11-1.22,1.11-1.22l2.64-12.26,3.28-15.2,.06-.28s-.11-.58-.48-1.72Zm-13.3-32.86c-.06-.61-.2-1.51-.4-2.57,.28,1.05,.38,1.94,.4,2.57Zm-54.2,37.19c-.46-1.57,.94-3.89,2.87-6.16l-2.87,6.16Zm3.38-6.76c3.18-3.57,7.39-6.88,7.39-6.88l13.8-7.02,9.86-3.57s3.66,6.06,8.09,13.16c.66,1.05,1.33,2.12,2.01,3.2,.18,.29,.37,.58,.55,.87,2.38,3.75,4.82,7.54,6.94,10.67,.68,1.01,1.33,1.96,1.93,2.81,.6,.84,1.14,1.59,1.63,2.23,.31,.4,.59,.76,.85,1.07,.26,.32,.5,.6,.71,.81,.02,.02,.04,.04,.06,.06-.03,.02-.06,.04-.09,.06-.45,.32-.95,.66-1.48,1.01-.24,.15-.5,.31-.76,.48-2.44,1.54-5.53,3.29-8.95,5.12-7.64,4.08-16.92,8.56-24.28,12.01-10.37-15.85-17.35-33.71-18.26-36.09Zm11.07,213.49l-.73-.51-.53-.6c.16-.99,.39-2.15,.72-3.46,.37,.78,.76,1.61,1.1,2.41l-.56,2.16Zm17.06-81.63c-2.01,3.7-16.44,30.37-20.09,39.63-2.24-4.63-6.03-11.98-8.92-15.04,0-.01,0-.02,0-.02-2.26-2.57-4.67-4.58-6.77-6.08l.75-.5-6.43-3.04c1.44-6.42,31.36-23.71,31.36-23.72,4.25,2.76,7.58,5.14,7.58,5.14l2.76,3.2s-.08,.15-.23,.43Zm6.57-42.53l.13,.18s-.31,.77-2.44,2.63c-.85,.74-1.98,1.64-3.5,2.73-.08,.07-.17,.13-.25,.18-.31,.23-.63,.46-.97,.69-2.17,1.51-4.99,3.33-8.64,5.5-1.49-1.11-3.14-2.11-5.01-2.97-20.42-9.36-31.43-19.71-31.43-19.71,1.86-3.52,15.09-11.43,15.09-11.43l15.03-7.97c3.73,5.36,7.46,10.38,10.26,14.05,1.49,1.96,2.72,3.54,3.55,4.58,.71,.91,1.12,1.42,1.12,1.42,0,0,.04-.34,.25-.78l-.25,.78,6.63,9.5,.43,.62Z"/><path class="cls-2" d="M260.17,155.08l7.43,13.89,1.37-6.67s.01-.02,.02-.04c.6-1.51,.98-3.6,1.2-5.89h0s0,0,0,0c.66-6.76,0-15.21,0-15.21-.24-4.73-1.56-9.26-1.56-9.26l-.73,3.24-3.15-8.28s.4,8.74,1.06,17.61l-.55,2.44s.29-.06,.72-.21c.26,3.32,.56,6.55,.89,9.24l-6.67-.86Z"/></g><path class="cls-1" d="M212.48,366.13s.45,.64,.41,4.12c-.03,3.48-1.02-1.44-1.02-1.44l.61-2.68Z"/></g><rect class="cls-2" x="242.03" y="480.53" width="7.72" height="9.46"/></g><path d="M334.45,461.29c-1.74,5.97-3.54,11.93-5.45,17.85-.45,1.39-.9,2.77-1.37,4.15-1.36,4-2.79,8-4.1,12.02-1.61,4.9-3.11,6.93-4.66,10.28l-9.32-.45,1.54-32.25c1.3-4.16,2.56-8.32,3.84-12.49,1.76-5.73,3.47-11.47,5.23-17.21,.25-.79,.15-1.18-.69-1.48-2.26-.82-4.52-1.67-6.77-2.52-1.05-.41-2.11-.81-3.17-1.22-1.83-.7-3.66-1.4-5.48-2.14-4.58-1.84-9.03-3.9-12.62-7.47-1.41-1.41-2.35-3.07-2.85-5.06-1.66-6.61-3.35-13.22-5.14-19.8-.81-2.98,.31-5.34,2.24-7.26,2.52-2.5,5.24-4.81,7.99-7.03,4.6-3.72,9.31-7.31,13.98-10.95,.27-.21,.55-.4,.83-.59-.04-.1-.07-.21-.11-.3-1.1-.19-2.2-.45-3.32-.57-5.09-.57-10.18-1.07-15.27-1.65-.76-.09-1.47-.41-2.21-.6-1.42-.38-2.28-1.33-2.88-2.66-1.7-3.8-3.46-7.58-5.18-11.38-1.1-2.46-1.91-5.08-3.31-7.35-1.32-2.15-.61-3.7,.65-5.23,2.53-3.04,5.08-6.07,7.77-8.98,4.28-4.62,8.2-9.54,11.89-14.65,2.72-3.76,5.48-7.49,8.21-11.26,2.83-3.89,5.63-7.8,8.45-11.7,1.65-2.29,3.37-4.54,4.97-6.87,.61-.91,1.12-1.89,1.61-2.89,.11-.24,.23-.49,.35-.72,.1-.23-.05-.76-.26-.97,0-.02-.03-.03-.05-.04-1.84-1.25-3.6-2.73-5.62-3.57-2.99-1.26-6.16-2.12-9.27-3.06-3.97-1.19-8.1-.82-12.17-1.11-1.67-.11-3.33-.26-4.99-.27-1.58,0-2.48-.62-3-2.2-1.4-4.34-2.95-8.63-4.45-12.93-.59-1.71-1.2-3.42-1.82-5.14-.27-.75-.12-1.26,.6-1.69,4.92-2.93,9.27-6.59,13.08-10.85,2.66-2.96,5.18-6.07,7.66-9.18,3.62-4.56,7.21-9.17,10.73-13.82,2.11-2.78,4.05-5.68,6.09-8.51,.51-.72,.39-1.32-.02-2.02-1.78-2.95-4.29-5.15-7.12-6.98-1.61-1.05-3.3-1.96-4.98-2.92-1.43-.82-2.82-1.75-4.32-2.4-1.72-.73-3.55-1.17-5.31-1.8-5.99-2.1-11.97-4.2-17.95-6.34-1.6-.57-3.15-1.32-4.72-1.98-.06-.02-.13-.05-.19-.08-1.08-.7-2.29-1.08-2.12-2.96,.17-1.93-.3-3.92-.46-5.88-.33-4.17-.63-8.34-.96-12.52-.04-.59-.1-1.2-.28-1.76-.31-.97,.15-1.43,.95-1.76,2.04-.81,4.06-1.65,6.11-2.45,5.94-2.3,11.63-5.11,16.96-8.63,4.18-2.76,7.59-3.99,12-6.33,5.76-3.06,19.22-9.12,23.5-12.45,1.29-1,2.6-1.96,3.89-2.94l10.44,.5c-1.7,1.93-1.2,4.22-3.16,5.83-4.07,3.36-8.23,6.59-12.44,9.77-.86,.65-1.73,1.3-2.6,1.94-6.5,4.87-13.11,9.58-19.64,14.42-4.21,3.1-8.35,6.3-12.53,9.47-.27,.21-.53,.43-.99,.81,1.04,.58,1.98,1.08,2.89,1.61,3.68,2.14,7.48,4.1,10.99,6.49,4.97,3.38,9.14,7.65,12.09,13.02,1.75,3.18,2.61,6.57,2.72,10.19,.18,5.73,.36,11.46,.46,17.2,.1,5.45-1.25,10.6-3.44,15.54-2.55,5.77-6.33,10.74-10.1,15.7-1.48,1.95-3.01,3.86-4.59,5.88,1.75,.66,3.42,1.25,5.07,1.92,4.8,1.96,8.96,4.79,11.92,9.2,.69,1.03,1.23,2.1,1.68,3.21,.86,2.13,1.38,4.38,1.91,6.62,1.19,5.14,2.38,10.26,3.58,15.4,1.3,5.65,.22,10.95-2.32,16.05-1.52,3.07-3.4,5.88-5.4,8.62-1.11,1.53-2.27,3.03-3.41,4.55-2.51,3.33-4.99,6.68-7.53,9.99-3.74,4.9-7.52,9.77-11.28,14.65-.25,.33-.5,.67-.86,1.12,.96,.16,1.79,.37,2.64,.42,6.36,.41,12.6,1.41,18.51,3.94,.09,.03,.18,.08,.26,.12,2.51,1.14,4.16,3.05,4.66,5.94,.91,5.3,1.88,10.57,2.83,15.86,.12,.66,.27,1.32,.47,1.95,.56,1.78,.23,3.4-.73,4.94-1.78,2.87-4.28,5.01-6.88,7.01-.71,.54-1.42,1.09-2.13,1.62-5.4,4.11-10.85,8.15-16.27,12.23-.8,.61-1.59,1.24-2.63,2.03,1.66,.61,3.13,1.15,4.59,1.68,4.48,1.61,8.98,3.14,13.3,5.16,.86,.39,1.7,.8,2.54,1.24,3.54,1.84,6.01,4.48,7.61,8.15,1.9,4.36,3.86,8.7,5.8,13.04,1.16,2.57,2.32,5.15,3.46,7.72,.72,1.63,1.6,3.24,1.98,4.96,.6,2.77,.1,5.57-.66,8.24Z"/><rect class="cls-1" x="336.55" y="124.72" width="10.28" height="30.64"/><rect class="cls-1" x="300.47" y="499.2" width="30.9" height="20.55"/></g><g id="Layer_2"><path class="cls-1" d="M282.32,374.17h-22.35c-1.13-.78-2.28-1.55-3.45-2.29-2.41-1.52-4.75-3.16-7.07-4.81-.13-.09-.26-.19-.39-.28-1.23-.88-2.02-1.88-1.33-3.66,.73-1.88,.95-3.91,1.42-5.88,.1-.41,.2-.81,.3-1.22,.64-2.63,1.31-5.27,1.93-7.9,.25-1.06,.77-1.9,1.82-2.42,.54-.28,1.05-.63,1.62-.83,3.87-1.31,7.76-2.58,11.63-3.89,.85-.29,1.66-.67,2.49-1,.01-.08,.02-.16,.03-.23-.24-.1-.49-.18-.73-.28-4.21-1.8-8.44-3.56-12.61-5.42-2.09-.94-4.18-1.92-6.18-3.01-.39-.21-.78-.42-1.16-.64-1.81-1.05-3.05-2.55-2.89-4.85,.35-5.06,.63-10.12,.87-15.18,.08-1.52,.54-2.89,1.42-4.15,.53-.77,1.12-1.49,1.76-2.16,1.98-2.13,4.4-3.83,6.88-5.46,1.3-.85,2.62-1.68,3.93-2.51,2.38-1.49,4.74-2.99,7.14-4.44,.6-.37,.62-.67,.3-1.2-2.27-3.82-4.51-7.65-6.78-11.47-2.4-4.03-4.78-8.06-7.23-12.06-1.39-2.26-2.81-4.51-4.24-6.75v-10.73h10.6c.64,.78,1.3,1.69,2.04,2.87,2.23,3.58,4.6,7.09,6.81,10.68,2.42,3.93,4.77,7.9,7.06,11.9,1.02,1.79,1.85,3.73,1.82,5.82-.02,1.31-.44,2.63-.75,3.93-1.3,5.53-2.66,11.05-3.93,16.6-.66,2.92-2.17,5.26-4.63,7.22-3.54,2.81-7.45,5.07-11.32,7.41-1.06,.64-2.11,1.29-3.31,2.02,.93,.39,1.64,.7,2.37,1,5.5,2.24,11.03,4.44,16.51,6.73,2.34,.98,4.63,2.09,6.46,3.84,.99,.94,1.5,2.05,1.35,3.43-.06,.49-.07,.99-.06,1.48,.1,3.98,.18,7.96,.31,11.94,.07,2.25-.99,3.95-2.88,5.24-4.2,2.86-8.89,4.69-13.78,6.11-.65,.19-1.27,.49-1.99,.77,.35,.27,.6,.46,.85,.66,3.7,2.85,7.41,5.69,11.1,8.56,2.49,1.94,4.95,3.92,7.43,5.87,.27,.21,.54,.43,.81,.64Z"/><path class="cls-1" d="M327.74,357.89c-1.49,3.53-3.65,6.67-5.76,9.84-1.43,2.15-2.84,4.3-4.27,6.44h-15.59c2.29-2.94,4.4-6,6.4-9.13,1.8-2.82,3.62-5.63,5.42-8.45,1.86-2.92,3.7-5.85,5.56-8.77,1.09-1.72,2.23-3.41,3.28-5.15,.5-.84,.88-1.77,1.24-2.68,.07-.18-.09-.61-.27-.71-1.39-.81-2.74-1.78-4.24-2.29-2.23-.76-4.56-1.23-6.86-1.75-2.94-.67-5.92-.21-8.88-.22-1.21,0-2.42-.03-3.63,.04-1.14,.07-1.83-.32-2.28-1.43-1.22-3.03-2.54-6.03-3.83-9.04-.51-1.2-1.04-2.4-1.57-3.59-.23-.52-.14-.9,.36-1.24,3.42-2.33,6.4-5.16,8.97-8.39,1.78-2.24,3.46-4.58,5.11-6.93,2.41-3.44,4.79-6.9,7.12-10.39,1.39-2.09,2.66-4.26,4.01-6.38,.34-.54,.22-.96-.11-1.44-1.43-2.03-3.35-3.49-5.49-4.67-1.22-.67-2.5-1.25-3.75-1.85-1.08-.52-2.13-1.12-3.25-1.51-1.28-.45-2.62-.68-3.93-1.04-4.44-1.22-8.88-2.44-13.31-3.69-1.19-.33-2.34-.79-3.51-1.19-.05-.01-.1-.03-.14-.05-.82-.45-1.71-.67-1.68-2.02,.03-1.39-.41-2.78-.62-4.18-.43-2.97-.85-5.95-1.28-8.92-.07-.42-.14-.85-.29-1.24-.28-.68,.04-1.03,.6-1.3,1.44-.68,2.87-1.38,4.31-2.04,2.04-.94,4.04-1.96,5.97-3.08h19c-1.3,1.07-2.6,2.15-3.89,3.23-2.9,2.42-5.75,4.91-8.62,7.37-.19,.16-.37,.33-.68,.63,.79,.36,1.48,.68,2.17,1.01,2.77,1.36,5.61,2.58,8.27,4.12,3.77,2.19,6.98,5.04,9.38,8.74,1.43,2.2,2.21,4.59,2.46,7.17,.39,4.09,.81,8.18,1.15,12.28,.33,3.9-.4,7.65-1.75,11.28-1.58,4.25-4.08,7.99-6.58,11.72-.98,1.46-1.99,2.9-3.04,4.42,1.3,.39,2.54,.73,3.77,1.14,3.57,1.17,6.72,3,9.07,6.01,1.59,2.04,2.33,4.46,3.07,6.87,1.1,3.62,2.22,7.23,3.32,10.85,1.22,3.98,.68,7.83-.91,11.6Z"/><path class="cls-1" d="M374.17,363.06v11.11h-5.45c-1.1-.33-2.19-.66-3.29-1-1.36-.41-2.72-.83-4.08-1.27-3.4-1.1-6.73-2.37-9.5-4.75-1.09-.94-1.85-2.09-2.3-3.49-1.52-4.65-3.06-9.3-4.67-13.92-.73-2.1-.03-3.84,1.28-5.31,1.7-1.91,3.56-3.68,5.45-5.41,3.17-2.88,6.41-5.67,9.61-8.49,.19-.17,.39-.31,.58-.46-.03-.07-.06-.14-.09-.21-.81-.09-1.62-.22-2.43-.26-3.72-.16-7.43-.29-11.15-.46-.55-.02-1.09-.22-1.63-.32-1.05-.21-1.72-.85-2.21-1.77-1.41-2.64-2.87-5.26-4.29-7.9-.92-1.71-1.64-3.55-2.76-5.1-1.06-1.48-.62-2.62,.23-3.78,1.68-2.29,3.39-4.58,5.2-6.78,2.88-3.52,5.48-7.22,7.92-11.05,1.79-2.82,3.62-5.62,5.41-8.44,1.87-2.92,3.71-5.85,5.57-8.77,1.09-1.72,2.22-3.41,3.27-5.16,.51-.84,.88-1.76,1.25-2.68,.07-.18-.1-.6-.28-.71-1.39-.8-2.73-1.77-4.23-2.29-2.23-.76-4.56-1.22-6.87-1.75-2.93-.66-5.91-.21-8.87-.21-1.21-.01-2.43-.04-3.63,.04-1.15,.07-1.83-.32-2.28-1.43-1.22-3.04-2.55-6.04-3.83-9.04-.37-.85-.74-1.7-1.12-2.55h18.61c.56,.16,1.11,.33,1.66,.51,3.58,1.18,6.72,3,9.08,6.02,1.59,2.04,2.32,4.45,3.06,6.87,1.11,3.61,2.22,7.23,3.33,10.84,1.22,3.99,.68,7.83-.91,11.6-1.49,3.53-3.66,6.67-5.77,9.84-1.66,2.5-3.29,5.02-4.97,7.51-2.48,3.68-4.98,7.34-7.48,11.01-.17,.25-.34,.5-.57,.85,.7,.06,1.32,.17,1.93,.17,4.63-.01,9.2,.42,13.6,1.95,1.98,.69,3.34,1.98,3.86,4.1,.91,3.75,1.86,7.48,2.8,11.22,.12,.47,.26,.93,.43,1.37,.49,1.25,.33,2.42-.29,3.57-1.15,2.13-2.86,3.79-4.65,5.34-4.2,3.63-8.45,7.2-12.68,10.79-.55,.47-1.09,.96-1.8,1.58,1.23,.35,2.31,.67,3.4,.98,3.98,1.13,7.97,2.17,11.78,3.83,1.97,.86,3.54,2.05,4.77,3.66Z"/></g></svg>