<?xml version="1.0" encoding="UTF-8"?><svg id="Layer_1" xmlns="http://www.w3.org/2000/svg" viewBox="0 0 623.62 623.62"><defs><style>.cls-1{fill:#fff;}.cls-2{fill:#231f20;}</style></defs><rect class="cls-2" x="124.72" y="124.72" width="17.01" height="374.17"/><rect class="cls-2" x="157.19" y="124.72" width="17.01" height="374.17"/><rect class="cls-2" x="189.66" y="124.72" width="17.01" height="374.17"/><rect class="cls-2" x="222.13" y="124.72" width="17.01" height="374.17"/><rect class="cls-2" x="254.6" y="124.72" width="17.01" height="374.17"/><rect class="cls-2" x="287.07" y="124.72" width="17.01" height="374.17"/><rect class="cls-2" x="319.54" y="124.72" width="17.01" height="374.17"/><rect class="cls-2" x="352.01" y="124.72" width="17.01" height="374.17"/><rect class="cls-2" x="384.48" y="124.72" width="17.01" height="374.17"/><rect class="cls-2" x="416.95" y="124.72" width="17.01" height="374.17"/><rect class="cls-2" x="449.42" y="124.72" width="17.01" height="374.17"/><rect class="cls-2" x="481.89" y="124.72" width="17.01" height="374.17"/><g><path class="cls-1" d="M333.86,249.45v8.92s-22.52-.51-30.49-3.74c-7.98-3.23-21.81-5.11-23.05-4.43-1.24,.68-5.67,4.77-7.8,11.57-.42,1.33,1.52,2.49,4.92,3.48,.33,.09,.67,.19,1.02,.28,10.19,2.65,30.98,3.97,43.37,3.87,.44,0,.86,0,1.28-.02,4.87-.08,8.19-.41,8.63-.98,.47-.62,1.09-1.47,1.76-2.4,2.08-2.9,4.62-6.58,4.62-6.58l-4.26-9.98Z"/><path class="cls-1" d="M278.11,265.45l2.67,.36,26.84,3.61-8.16,8.7s-19.14-13.93-21.36-12.67Z"/><path class="cls-1" d="M276.54,264.98s15.65,7.69,14.41,8.54,5.14-1.78,5.14-1.78c0,0-16.59-7.98-19.55-6.76Z"/><polygon class="cls-1" points="304.43 271.74 311.7 266.71 301.24 266.71 304.43 271.74"/><path class="cls-1" d="M292.86,273.48s-9.18-.12-17.16-1.74c-7.98-1.63-15.6-1.44-18.97,0s42.73,6.37,42.73,6.37l-6.6-4.63Z"/><path class="cls-1" d="M252.31,285.26l4.43-13.52,42.73,6.37s-11.88,8.51-16.84,7.83-30.32-.68-30.32-.68Z"/><polygon class="cls-1" points="283.94 268.78 285.46 274.35 287.94 274.35 286.32 265.36 283.94 268.78"/><path class="cls-1" d="M305.44,271.74s3.25,17.44,1.03,23.4c-7.53,20.26-42.11,40.51-40.16,43.23s6.74,0,7.45,1.19c.71,1.19,35.81-25.53,35.81-25.53,0,0,2.84-9.7,2.13-10.55-.71-.85-.46-31.81-6.26-31.74Z"/><polygon class="cls-1" points="299.47 278.11 307.62 286.62 305.29 267.39 299.47 278.11"/><path class="cls-1" d="M252.31,285.26s4.79,5.45,15.6,10.38c10.81,4.94,18.04,12.09,18.04,12.09l1.29,1.19v-2.21l7.9,5.1,8.41-10.76s-24.11-15.11-32.8-19.2c-8.69-4.09-18.44,3.4-18.44,3.4Z"/><path class="cls-1" d="M287.23,282.54s1.77,8.85,.71,12.77c-1.06,3.91-.71,13.62-.71,13.62,0,0-1.08,11.32-10.69,19.61-9.61,8.29-10.23,9.84-10.23,9.84l-5.14-14.47s26.97-24.19,26.06-41.36Z"/><polygon class="cls-1" points="278.9 319.31 286.32 282.54 287.88 286.62 278.9 319.31"/><path class="cls-1" d="M309.57,314.03l-1.06,14.98s-2.3,4.94-7.27,9.36c-4.96,4.43-10.46,6.13-10.46,6.13l-29.61,6.47s11.85-13.62,27.11-24.51c15.26-10.89,21.29-12.43,21.29-12.43Z"/><path class="cls-1" d="M259.04,352.16l-1.24,14.81s5.67-1.87,20.12-4.26c14.45-2.38,27.24-7.83,27.24-7.83l4.41-2.72v-15.66s-1.95-4.77-6.03-4c-4.08,.77,2.93,5.19,2.93,5.19l-2.93,6.64s-41.49,3.23-44.5,7.83Z"/><polygon class="cls-1" points="294.86 341.26 297.72 344.84 303.54 344.33 306.47 337.69 302.62 334.39 294.86 341.26"/><polygon class="cls-1" points="276.54 346.03 300.66 342.97 297.34 348.75 276.54 346.03"/><path class="cls-1" d="M297.01,357.88s27.09,7.89,25.68,10.44-4.61,5.85-4.61,5.85h9.22l-3.9-15.55s-.12-6.4-13.83-10.72c-13.71-4.33-12.56,9.98-12.56,9.98Z"/><path class="cls-1" d="M257.8,366.97l3.37,1.36s-.53,5.85,1.06,5.85h46.27l-23.14-12.97s-28.28,3.55-27.57,5.76Z"/><path class="cls-1" d="M329.25,269.07s2.13,1.22,8.87-5.25c6.74-6.47-7.09-1.19-7.09-1.19l-1.78,7.23"/></g><polygon class="cls-1" points="294.87 303.63 301.05 319.31 314.15 300.92 294.87 303.63"/><path class="cls-1" d="M336.55,266.89s-1.35,3.53-8.5,2.52,8.5-2.52,8.5-2.52Z"/><path class="cls-1" d="M324.98,264.85l-6.64,3.39s11.81,2.32,15.01,.98-3.13-5.93-3.13-5.93l-5.23,1.55Z"/><polygon class="cls-2" points="336.55 244.15 336.55 257.74 335.86 258.37 331.36 254.36 336.55 244.15"/><path class="cls-2" d="M319.54,257.34s15.63,1.66,16.32,1.03-16.32-1.03-16.32-1.03Z"/><path class="cls-1" d="M328.05,269.41s7.29,1.31,12.07-2.02c4.78-3.33-12.07,2.02-12.07,2.02Z"/><polygon class="cls-1" points="298.1 264.85 291.02 278.11 298.1 271.74 298.1 264.85"/><path class="cls-1" d="M377.75,336.75c-1.03,.66-1.8,1.56-2.82,2.22-1.03,.65-2.32,1.09-3.38,1.72-5.71,3.37-11.42,6.76-17.09,10.18-5.05,3.04-10.05,6.13-15.05,9.22-1.77,1.08-1.98,1.93-.88,3.58,.52-.39,1.04-.72,1.54-1.09,2.27-1.67,5.01-2.67,8.17-2.86,1.09-.07,2.39,.13,3.36,.52,3.31,1.36,6.61,2.75,9.76,4.32,2.35,1.17,4.69,2.45,6.62,3.97,2.18,1.73,3.01,3.73,2.82,5.64h-12.12c-.61-1.99-1.66-3.93-2.53-5.88-.84-1.88-2.04-2.29-4.62-1.65-3.03,.73-5.27,2.27-7.44,3.9-.87,.65-1.06,1.17-.28,1.8,.76,.61,1.51,1.22,2.26,1.83h-10.57c-.74-1.07-1.13-2.29-1.78-3.4-.86-1.48-.35-3.62-.23-4.82,.62-6.18,3.65-11.9,7.06-17.49,2.25-3.71,5.44-7.03,9.18-10.02,1.44-1.15,5.4-2.66,6.93-3.74-.09-.11-.2-.22-.29-.32-2.34-.14-7.03,.22-9.36,.06-1.29-.09-2.58-.25-3.87-.42-2.59-.36-4.39-1.48-5.94-3.07-2.46-2.54-5.18-4.95-7.82-7.39-1.49-1.39-1.82-3.97-.74-5.58,2.6-3.82,5.13-7.66,7.7-11.48,.58-.86,1.23-1.71,1.8-2.57,.82-1.2,.41-1.75-1.4-1.69-2.79,.1-5.58,.22-8.32,.54-4.61,.55-4.57,.62-5.83-2.62-1-2.54-2.04-5.07-3.1-7.6-.39-.96,0-1.44,1.28-1.8,5.77-1.62,11.51-3.29,17.24-4.97,1.82-.54,3.59-1.16,5.4-1.74,2.1-.67,2.15-.83,.36-1.83-4.89-2.72-9.86-5.37-14.66-8.18-1.8-1.04-3.35-2.37-4.83-3.68-1.98-1.78-1.44-3.93-1.01-5.98,.63-2.96,1.78-5.88,2.02-8.87,.26-2.74,2.61-3.82,5.35-4.55,1.91-.51,3.83-1.01,5.75-1.51h39.8c-3.01,1.68-6.23,3.13-10,4.04-5.11,1.22-9.9,3.19-14.88,4.73-3.88,1.2-7.85,2.25-11.75,3.42-.62,.18-1.11,.56-1.66,.86,.44,.43,.77,.98,1.33,1.26,6.14,3.09,14.48,6.8,18.79,11.29,.57,.6,.84,1.47,.9,2.22,.35,4.76-.95,9.4-2.3,14.01-.53,1.81-5.38,3.02-7.42,4.01-1.14,.54-2.34,1.05-3.58,1.47-1.36,.44-1.4,1.02-.71,1.87,1.74,2.11,3.49,4.22,5.08,6.39,.65,.91,.91,1.97,1.32,2.97,.3,.73,0,1.27,.35,2.27-2.04,.83-1.48,3.09-2.53,4.73-1.37,2.17-2.87,4.32-4.26,6.5-.27,.4-.25,.89-.36,1.33,.59,.07,1.22,.24,1.8,.17,6.03-.71,12.04-1.53,18.09-2.15,2.14-.21,4.37,0,6.54,.17,.63,.05,1.42,.56,1.72,1.02,2.32,3.36,4.59,6.77,6.81,10.18,.99,1.53,.18,3.33-1.72,4.54Z"/></svg>