<?xml version="1.0" encoding="UTF-8"?><svg class="line" id="Layer_1" xmlns="http://www.w3.org/2000/svg" viewBox="0 0 623.62 623.62" perspectiveratio="none"><defs><style>.cls-1{fill:#fff;}.cls-2{fill:#231f20;}</style></defs><rect class="cls-2" x="124.72" y="124.72" width="17.01" height="374.17"/><rect class="cls-2" x="157.19" y="124.72" width="17.01" height="374.17"/><rect class="cls-2" x="189.66" y="124.72" width="17.01" height="374.17"/><rect class="cls-2" x="222.13" y="124.72" width="17.01" height="374.17"/><rect class="cls-2" x="254.6" y="124.72" width="17.01" height="374.17"/><rect class="cls-2" x="287.07" y="124.72" width="17.01" height="374.17"/><rect class="cls-2" x="319.54" y="124.72" width="17.01" height="374.17"/><rect class="cls-2" x="352.01" y="124.72" width="17.01" height="374.17"/><rect class="cls-2" x="384.48" y="124.72" width="17.01" height="374.17"/><rect class="cls-2" x="416.95" y="124.72" width="17.01" height="374.17"/><rect class="cls-2" x="449.42" y="124.72" width="17.01" height="374.17"/><rect class="cls-2" x="481.89" y="124.72" width="17.01" height="374.17"/><g><path class="cls-1" d="M335.86,249.45v8.92s-22.52-.51-30.49-3.74c-7.98-3.23-21.81-5.11-23.05-4.43s-5.67,4.77-7.8,11.57c-.42,1.33,1.52,2.49,4.92,3.48,.33,.09,.67,.19,1.02,.28,10.19,2.65,30.98,3.97,43.37,3.87,.44,0,.86,0,1.28-.02,4.87-.08,8.19-.41,8.63-.98,.47-.62,1.09-1.47,1.76-2.4,2.08-2.9,4.62-6.58,4.62-6.58l-4.26-9.98Z"/><path class="cls-1" d="M280.11,265.45l2.67,.36,26.84,3.61-8.16,8.7s-19.14-13.93-21.36-12.67Z"/><path class="cls-1" d="M278.55,264.98s15.65,7.69,14.41,8.54,5.14-1.78,5.14-1.78c0,0-16.59-7.98-19.55-6.76Z"/><polygon class="cls-1" points="306.43 271.74 313.7 266.71 303.24 266.71 306.43 271.74"/><path class="cls-1" d="M294.87,273.48s-9.18-.12-17.16-1.74c-7.98-1.63-15.6-1.44-18.97,0-3.37,1.44,42.73,6.37,42.73,6.37l-6.6-4.63Z"/><path class="cls-1" d="M254.31,285.26l4.43-13.52,42.73,6.37s-11.88,8.51-16.84,7.83c-4.96-.68-30.32-.68-30.32-.68Z"/><polygon class="cls-1" points="285.95 268.78 287.46 274.35 289.94 274.35 288.32 265.36 285.95 268.78"/><path class="cls-1" d="M307.44,271.74s3.25,17.44,1.03,23.4c-7.53,20.26-42.11,40.51-40.16,43.23s6.74,0,7.45,1.19,35.81-25.53,35.81-25.53c0,0,2.84-9.7,2.13-10.55-.71-.85-.46-31.81-6.26-31.74Z"/><polygon class="cls-1" points="301.47 278.11 309.62 286.62 307.29 267.39 301.47 278.11"/><path class="cls-1" d="M254.31,285.26s4.79,5.45,15.6,10.38c10.81,4.94,18.04,12.09,18.04,12.09l1.29,1.19v-2.21l7.9,5.1,8.41-10.76s-24.11-15.11-32.8-19.2-18.44,3.4-18.44,3.4Z"/><path class="cls-1" d="M289.23,282.54s1.77,8.85,.71,12.77-.71,13.62-.71,13.62c0,0-1.08,11.32-10.69,19.61-9.61,8.29-10.23,9.84-10.23,9.84l-5.14-14.47s26.97-24.19,26.06-41.36Z"/><polygon class="cls-1" points="280.9 319.31 288.32 282.54 289.89 286.62 280.9 319.31"/><path class="cls-1" d="M311.57,314.03l-1.06,14.98s-2.3,4.94-7.27,9.36-10.46,6.13-10.46,6.13l-29.61,6.47s11.85-13.62,27.11-24.51c15.26-10.89,21.29-12.43,21.29-12.43Z"/><path class="cls-1" d="M261.04,352.16l-1.24,14.81s5.67-1.87,20.12-4.26c14.45-2.38,27.24-7.83,27.24-7.83l4.41-2.72v-15.66s-1.95-4.77-6.03-4c-4.08,.77,2.93,5.19,2.93,5.19l-2.93,6.64s-41.49,3.23-44.5,7.83Z"/><polygon class="cls-1" points="296.86 341.26 299.72 344.84 305.54 344.33 308.47 337.69 304.62 334.39 296.86 341.26"/><polygon class="cls-1" points="278.55 346.03 302.66 342.97 299.34 348.75 278.55 346.03"/><path class="cls-1" d="M299.02,357.88s27.09,7.89,25.68,10.44-4.61,5.85-4.61,5.85h9.22l-3.9-15.55s-.12-6.4-13.83-10.72c-13.71-4.33-12.56,9.98-12.56,9.98Z"/><path class="cls-1" d="M259.8,366.97l3.37,1.36s-.53,5.85,1.06,5.85h46.27l-23.14-12.97s-28.28,3.55-27.57,5.76Z"/><path class="cls-1" d="M331.25,269.07s2.13,1.22,8.87-5.25-7.09-1.19-7.09-1.19l-1.78,7.23"/></g><polygon class="cls-1" points="294.87 303.63 301.05 319.31 314.15 300.92 294.87 303.63"/><path class="cls-1" d="M336.55,266.89s-1.35,3.53-8.5,2.52,8.5-2.52,8.5-2.52Z"/><path class="cls-1" d="M324.98,264.85l-6.64,3.39s11.81,2.32,15.01,.98-3.13-5.93-3.13-5.93l-5.23,1.55Z"/><polygon class="cls-2" points="336.55 244.15 336.55 257.74 335.86 258.37 331.36 254.36 336.55 244.15"/><path class="cls-2" d="M319.54,257.34s15.63,1.66,16.32,1.03-16.32-1.03-16.32-1.03Z"/><path class="cls-1" d="M328.05,269.41s7.29,1.31,12.07-2.02c4.78-3.33-12.07,2.02-12.07,2.02Z"/><polygon class="cls-1" points="298.1 264.85 291.02 278.11 298.1 271.74 298.1 264.85"/></svg>